<svg xmlns="http://www.w3.org/2000/svg" xmlns:xlink="http://www.w3.org/1999/xlink" width="500" height="500" viewBox="0 0 132.292 132.292">
  <defs>
    <linearGradient id="a">
      <stop offset="0" stop-color="#fff" stop-opacity="0"/>
      <stop offset="1" stop-color="#d2d2d2"/>
    </linearGradient>
    <linearGradient id="b" x1="150.908" x2="150.601" y1="96.973" y2="133.565" gradientTransform="scale(3.77953)" gradientUnits="userSpaceOnUse" xlink:href="#a"/>
    <linearGradient id="c" x1="150.908" x2="150.601" y1="96.973" y2="133.565" gradientTransform="matrix(1 0 0 -1 0 132.292)" gradientUnits="userSpaceOnUse" xlink:href="#a"/>
    <filter id="d" width="1" height="1" x="0" y="0" color-interpolation-filters="sRGB">
      <feGaussianBlur/>
    </filter>
  </defs>
  <path fill="#eee" fill-rule="evenodd" d="M0 0h132.292v132.292H0z" paint-order="fill markers stroke"/>
  <path fill="url(#b)" d="M500 214.174c-73.784 77.125-200.995 236.18-314.252 86.717C101.012 189.066 39.832 204.358 0 245.959V500h500V214.174z" transform="scale(.26458)"/>
  <path fill="url(#c)" d="M132.292 75.625c-19.522-20.406-53.18-62.49-83.146-22.944C26.726 82.268 10.539 78.221 0 67.215V0h132.292z"/>
  <g stroke-width=".39" filter="url(#d)" opacity=".179" transform="matrix(2.63968 0 0 2.48977 -55.127 4.147)">
    <path fill="#02706c" d="M96.89 78.007s2.862 3.863 2.517 2.406c-.344-1.457-2.517-7.268-2.517-7.268z"/>
    <path fill="#fffefe" d="M75.387 79.162s-5.431 25.68-5.033 32.58c.398 6.902 7.628 2.886 7.628 2.886s1.937-29.191 6.369-31.329c4.432-2.137-8.964-4.137-8.964-4.137z"/>
    <path fill="#8d4c31" d="M76.123 80.578s-1.482.386-1.64 3.089c-.158 2.703.323-2.309 2.172-2.716 1.85-.408-.532-.373-.532-.373z"/>
    <path fill="#b66f27" d="M93.283 96.599s-7.77-6.77-7.309-12.56c.46-5.79 5.935 1.736 5.935 1.736z"/>
    <path fill="#7b4b1a" d="M76.1 86.909s-2.833-.466-4.025 2.828c-1.192 3.293 1.009-.15 1.009-.15z"/>
    <path fill="#b66f27" d="M80.472 82.857s-1.397 2.046-3.36 2.951c-1.963.905-4.75 2.632-5.045 5.604-.295 2.972 1.027-4.64 5.785-4.138 4.758.503 3.644 1.395 3.644 1.395l.714-.54s-1.336-1.79-2.636-1.974c-1.301-.183 2.143-2.666 2.143-2.666z"/>
    <path fill="#0ea49d" d="M77.703 41.411s24.271 16.984 18.55 40.547c0 0-3.329 4.44-2.23 17.348 0 0-7.054-13.774-3.954-16.564 3.1-2.79-16.253-32.035-16.253-32.035z"/>
    <path fill="#2ab2d0" d="M70.327 27.823C57.288 27.805 51.638 41.4 51.638 41.4c.466-.358 4.41 6.072 5.499 5.918l11.52-.089s11.452 2.004 10.434-7.091c-1.018-9.095-7.493-12.14-7.493-12.14-.955-.136-.401-.172-1.27-.174z"/>
    <path fill="#cb873e" d="M56.966 47.922S48.8 55.318 67.283 73.029C85.73 90.707 89.278 84.76 89.223 84.812l3.304-4.234-23.87-33.35s-10.156-3.68-11.691.694z"/>
    <path fill="#bd7933" d="M59.828 46.909c-1.205.292-2.153.915-2.483 2.08 0 0-7.282 7.568 10.888 23.9 2.915 2.62 5.435 4.658 7.62 6.246 1.21.421 1.955.63 1.182.193-2.03-1.145 1.49.421.634-.32-.856-.743-2.304-3.156-1.645-2.65.659.507-1.635-2.49-.96-2.148.634.322-1.131-3.701-.896-3.698-.461-.487-1.79-2.022-1.676-2.75.152-.977.681-2.627.681-2.627l-6.045-11.319-.505-6.49a29.462 29.462 0 00-.491-.112zM74.17 70.513c.159.167.217.214.074.057-.034-.038-.058-.056-.074-.057z"/>
    <path fill="#ad7130" d="M59.59 46.943c-1.15.17-2.086.653-2.444 1.675 0 0-4.359 3.951 1.949 13.112l.514.402s1.015-5.336.906-3.155c-.109 2.18 1.134-3.434 1.41-2.01.275 1.423.72-1.946.63-.656-.09 1.29.431-1.993.742-.859.31 1.135.494-.68.494-.68l1.787-5.68z"/>
    <path fill="#02928c" d="M66.781 47.007s-13.354 11.362 26.3 36.594c0 0 2.663 1.962 3.06.998.398-.965-1.78-4.466-1.104-4.92.675-.456.326-6.79-.092-7.738-.418-.948-.43-3.517-1.833-7.597-1.404-4.08-7.421-14.292-9.244-13.922-1.822.37-2.653-4.044-7.509-7.072-4.855-3.029-9.578 3.657-9.578 3.657z"/>
    <path fill="#02706c" d="M94.705 81.31c-.05-.016-.066.04-.037.19.227 1.194-3.639 1.156-3.639 1.156l.103.173c.56.365 1.13.732 1.713 1.103 0 0 2.663 1.962 3.06.998.24-.583-.456-2.087-.898-3.29-.135-.185-.244-.312-.302-.33zM94.705 79.793s.333-3.639-.577-5.052c-.911-1.412-5.345-2.316-5.415-4.67 0 0 .35 2.082 1.984 3.307 1.634 1.224 4.275 5.972 4.096 6.29"/>
    <path fill="silver" d="M75.02 110.765c-.209.067.41 1.54-.919.765-1.284-.75-2.963.576-3.63 1.184 1.003 5.498 7.444 1.95 7.5 1.919 0-.173.015-.35.049-.531.018-.255.033-.463.082-1.087-.566.5-1.042.727-.811-.238.625-2.612-1.054-.832-1.961-1.789-.17-.18-.262-.239-.31-.223z"/>
    <path fill="#dbdbdb" d="M75.084 111.096c-.172.037.121 1.432-.82.584-.912-.821-2.404.18-3.007.65.072 5.056 5.595 2.6 5.643 2.579a2.86 2.86 0 01.107-.472c.047-.227.086-.413.206-.967-.51.384-.913.534-.606-.307.831-2.277-.72-.868-1.308-1.83-.11-.181-.175-.245-.215-.237z"/>
    <path fill="#107f7c" d="M73.301 49.084s2.915 1.163 2.234 4.52c-.68 3.357 1.452-.819.98-2.608-.473-1.79 3.885 2.917 2.873 6.299-1.012 3.382 2.137-.616 1.612-2.848-.526-2.233-1.79-4.84-1.042-4.488.75.352-6.483-1.912-6.483-1.912z"/>
    <path fill="#107f7c" d="M74.988 50.675s2.622.7 2.287 3.468c-.335 2.768 1.199-.781.651-2.188-.547-1.407 3.6 2.037 2.98 4.853-.622 2.816 1.81-.673 1.183-2.434-.628-1.76-1.927-3.763-1.249-3.54.679.222-5.781-1.011-5.781-1.011zM68.166 48.108c-.14-.117-5.561.453 2.605 15.016 7.254 12.937-4.832-9.235-2.857-12.325 1.947-3.046 3.128-4.748.252-2.691z"/>
    <path fill="#098684" d="M83.775 73.87c-.307.024-.525.344-.677.703.806 1.347 2.688 3.279 6.67 6.004 8.81 6.03-5.018-3.675-5.76-6.668a.552.552 0 00-.233-.038zM84.363 65.996c-.26-.045.05 1.052-.453.836-.218-.094-.276.213-.27.663 1.041 2.528 3.14 6.01 7.088 10.79 9.664 11.698-4.121-5.42-6.078-12.047-.135-.159-.227-.232-.287-.242z"/>
    <path fill="#5a5a5a" d="M52.15 41.811c-9.93 7.48-17.48 16.341-14.63 14.682 15.818-8.016 21.763-12.307 21.763-12.307 1.718-1.99-1.89-.877-1.89-.877-7.334 1.42-5.242-1.498-5.242-1.498z"/>
    <path fill="#484848" d="M58.218 43.87S46.299 49.013 38.65 55.278z"/>
    <path fill="#4d4d4d" d="M51.905 44.038a.177.177 0 00-.063.032s-2.838 2.855-5.035 4.626a840.249 840.249 0 015.327-3.524s.061-1.202-.23-1.134zm-5.098 4.658l-.074.05.01.003.064-.053z"/>
    <path fill="#367486" d="M57.523 41.257s.193-1.575 1.094-1.812c.9-.238 1.968-.451 2.362-.948.394-.497.527-1.46 1.84-1.66 1.312-.201 2.117.794 2.117.794s.66 1.816-.683 2.977c-1.343 1.161-4.061.07-4.061.07s.4-1.02.226-1.003c-.174.016-2.014-.204-2.895 1.582z"/>
    <path fill="#02706c" d="M66.265 47.913s1.694-2.865 7.495 2.248c0 0 .914-3.516 7.854 2.097 6.94 5.613 7.325 6.859 7.325 6.859-.423.786-10.636-20.687-21.09-13.333 0 0-1.35.787-1.584 2.129z"/>
    <path fill="#717171" d="M52.341 47.236s4.226-2.614 5.016-2.595c.79.02.014.432.014.432z"/>
    <path fill="#fbfefb" d="M52.868 48.218s7.958-2.237 6.725.458c-1.234 2.695 3.992.081 5.804.148.262.09.59-2.19 3.013-2.107 0 0 .465-.227.043-.66-.423-.434-10.935-2.187-15.585 2.161z"/>
    <path fill="#2499b3" d="M62.72 34.538s4.784-.63 4.153 2.196c-.631 2.825 1.123-.47 1.132-1.288.008-.817-1.11-1.835-1.53-1.749-.421.086 1.239-1.946-3.756.84z"/>
    <path fill="#415352" d="M51.638 41.399s-.502-12.895 18.477-13.754c0 0 5.551 2.416-2.135 4.585-7.686 2.168-14.212 11.739-14.212 11.739s-2.383.74-2.13-2.57z"/>
    <path fill="#121717" fill-opacity=".839" d="M63.073 37.417c-1.883-.067-2.475 3.071-2.475 3.071 3.875 2.003 3.994-2.434 3.994-2.434-.58-.435-1.084-.621-1.519-.637z"/>
    <path fill="#b4743d" fill-opacity=".839" d="M70.612 36.224c-2.916.085-5.05 1.81-5.626 3.409-.658 1.827-5.365 3.588-5.365 3.588s-4.18 1.678.176.41a15.59 15.59 0 002.141-.792c7.238-3.898 7.61-1.977 9.5-1.567 2.635-3.364.216-3.495.216-3.495s3.824-1.004.254-1.484a7.98 7.98 0 00-1.296-.069z"/>
    <path fill="#fbfefb" d="M73.68 36.825c-.485.03-1.12.461-2.026.952 0 0 .943 1.606-.13 2.775-1.072 1.168 3.023 1.213 3.023 1.213s3.514-1.097 3.156-.354c0 0 .943-.231.783-.972-.16-.741-2.715-3.315-4.065-3.16-.21-.345-.449-.472-.74-.454z"/>
    <path fill="#fff" d="M61.724 39.237s.316-.74.534-.402c.218.338 1.275.452 1.584-.517.309-.969-2.033-.557-2.118.919z"/>
    <path fill="#d08b42" d="M53.768 43.969s2.198-2.992 2.634-3.051c.437-.06 1.348-.15 1.934-.541.586-.392.183 1.28.04 1.275-.14-.003.86-1.022-4.608 2.317"/>
    <path fill="#fff" d="M59.869 40.163s-1.728.196-.608 1.905 1.174-2.609.608-1.905z"/>
    <path fill="#455f5d" d="M51.907 41.43c.287.093.44-11.06 15.078-12.82 0 0 4.683 1.964-1.672 4.142-6.355 2.177-11.57 10.891-11.57 10.891s-1.97.736-1.836-2.213z"/>
  </g>
  <g filter="url(#d)">
    <path fill="#02706c" d="M90.029 73.237s2.86 3.863 2.516 2.406c-.344-1.457-2.517-7.268-2.517-7.268z"/>
    <path fill="#fffefe" d="M68.525 74.393s-5.431 25.68-5.033 32.58c.398 6.901 7.628 2.885 7.628 2.885s1.937-29.191 6.369-31.328c4.432-2.138-8.964-4.137-8.964-4.137z"/>
    <path fill="#8d4c31" d="M69.26 75.808s-1.48.386-1.639 3.09c-.158 2.703.323-2.31 2.172-2.717 1.85-.407-.532-.373-.532-.373z"/>
    <path fill="#b66f27" d="M86.421 91.83s-7.77-6.77-7.31-12.56c.461-5.79 5.936 1.735 5.936 1.735z"/>
    <path fill="#7b4b1a" d="M69.239 82.14s-2.834-.466-4.026 2.827c-1.192 3.293 1.009-.15 1.009-.15z"/>
    <path fill="#b66f27" d="M73.61 78.087s-1.397 2.046-3.36 2.951c-1.963.906-4.75 2.632-5.045 5.604-.295 2.973 1.027-4.64 5.785-4.138 4.758.503 3.644 1.396 3.644 1.396l.714-.54s-1.336-1.791-2.636-1.975c-1.301-.183 2.143-2.665 2.143-2.665z"/>
    <path fill="#0ea49d" d="M70.84 36.642s24.272 16.984 18.55 40.546c0 0-3.328 4.44-2.23 17.348 0 0-7.053-13.774-3.953-16.563 3.1-2.79-16.253-32.036-16.253-32.036z"/>
    <path fill="#2ab2d0" d="M63.465 23.054c-13.039-.019-18.689 13.575-18.689 13.575.466-.358 4.41 6.073 5.499 5.918l11.52-.088s11.452 2.003 10.434-7.092c-1.018-9.095-7.493-12.14-7.493-12.14-.955-.135-.401-.172-1.27-.173z"/>
    <path fill="#cb873e" d="M50.104 43.152S41.939 50.548 60.42 68.26c18.447 17.679 21.995 11.732 21.94 11.784l3.304-4.235-23.87-33.35s-10.156-3.68-11.691.694z"/>
    <path fill="#bd7933" d="M52.966 42.14c-1.205.292-2.153.914-2.483 2.08 0 0-7.282 7.567 10.888 23.899 2.915 2.62 5.435 4.659 7.62 6.247 1.21.42 1.955.629 1.182.192-2.03-1.144 1.49.422.634-.32-.856-.743-2.304-3.156-1.645-2.649.659.507-1.635-2.49-.96-2.148.634.321-1.131-3.702-.896-3.698-.461-.488-1.79-2.023-1.676-2.75.152-.977.681-2.628.681-2.628l-6.045-11.318-.505-6.491a29.462 29.462 0 00-.491-.111zm14.341 23.603c.159.168.217.215.074.057-.034-.038-.058-.056-.074-.057z"/>
    <path fill="#ad7130" d="M52.728 42.173c-1.15.17-2.086.653-2.444 1.675 0 0-4.359 3.952 1.949 13.113l.514.402s1.015-5.336.906-3.156c-.109 2.181 1.134-3.434 1.41-2.01.275 1.424.72-1.945.63-.656-.09 1.29.431-1.993.742-.858.31 1.134.494-.682.494-.682l1.787-5.679z"/>
    <path fill="#02928c" d="M59.92 42.238S46.564 53.599 86.22 78.83c0 0 2.662 1.963 3.06.998.397-.964-1.78-4.465-1.105-4.92.675-.455.326-6.79-.092-7.738-.418-.947-.43-3.517-1.833-7.596-1.404-4.08-7.421-14.293-9.244-13.923-1.822.37-2.653-4.044-7.509-7.072-4.855-3.028-9.578 3.658-9.578 3.658z"/>
    <path fill="#02706c" d="M87.843 76.54c-.05-.016-.066.04-.037.19.227 1.195-3.639 1.156-3.639 1.156l.103.173c.56.365 1.13.732 1.713 1.103 0 0 2.663 1.963 3.06.998.24-.583-.456-2.087-.898-3.29-.135-.185-.244-.311-.302-.33zM87.843 75.024s.333-3.64-.577-5.052c-.911-1.413-5.345-2.317-5.415-4.671 0 0 .35 2.083 1.984 3.307 1.634 1.224 4.275 5.972 4.096 6.29"/>
    <path fill="silver" d="M68.158 105.995c-.209.067.41 1.541-.919.766-1.284-.75-2.963.576-3.63 1.183 1.003 5.498 7.444 1.95 7.5 1.92 0-.174.015-.35.049-.532.018-.255.033-.463.082-1.086-.566.5-1.042.727-.811-.238.625-2.613-1.054-.833-1.961-1.79-.17-.179-.262-.238-.31-.223z"/>
    <path fill="#dbdbdb" d="M68.222 106.327c-.172.036.121 1.431-.82.583-.912-.82-2.404.18-3.007.65.072 5.057 5.595 2.6 5.643 2.58a2.86 2.86 0 01.107-.473c.047-.227.086-.412.206-.967-.51.385-.913.535-.606-.306.831-2.277-.72-.868-1.308-1.831-.11-.181-.175-.245-.215-.236z"/>
    <path fill="#107f7c" d="M66.44 44.315s2.914 1.162 2.233 4.52c-.68 3.357 1.452-.82.98-2.609-.473-1.79 3.885 2.917 2.873 6.3-1.012 3.382 2.137-.616 1.612-2.849-.526-2.233-1.79-4.84-1.042-4.488.75.352-6.483-1.911-6.483-1.911z"/>
    <path fill="#107f7c" d="M68.125 45.905s2.623.7 2.288 3.468c-.335 2.769 1.199-.78.651-2.188-.547-1.407 3.6 2.037 2.98 4.853-.622 2.816 1.81-.673 1.183-2.433-.628-1.761-1.927-3.763-1.249-3.54.679.222-5.781-1.012-5.781-1.012zM61.304 43.338c-.14-.117-5.561.453 2.605 15.017 7.254 12.937-4.832-9.235-2.857-12.326 1.947-3.045 3.128-4.747.252-2.69z"/>
    <path fill="#098684" d="M76.913 69.101c-.308.024-.525.344-.677.703.806 1.346 2.688 3.278 6.67 6.004 8.81 6.03-5.018-3.676-5.76-6.669a.552.552 0 00-.233-.038zM77.501 61.226c-.26-.045.05 1.052-.453.836-.218-.093-.276.214-.27.663 1.041 2.528 3.14 6.011 7.088 10.79 9.664 11.699-4.121-5.42-6.078-12.047-.135-.158-.227-.232-.287-.242z"/>
    <path fill="#5a5a5a" d="M45.289 37.042c-9.932 7.48-17.481 16.34-14.63 14.682C46.475 43.707 52.42 39.416 52.42 39.416c1.718-1.99-1.89-.876-1.89-.876-7.334 1.42-5.242-1.498-5.242-1.498z"/>
    <path fill="#484848" d="M51.356 39.1s-11.919 5.145-19.567 11.41z"/>
    <path fill="#4d4d4d" d="M45.043 39.269a.177.177 0 00-.063.031s-2.838 2.856-5.035 4.627a840.249 840.249 0 015.327-3.525s.061-1.202-.23-1.133zm-5.098 4.658l-.074.05.01.002.064-.052z"/>
    <path fill="#367486" d="M50.66 36.487s.194-1.575 1.095-1.812c.9-.237 1.968-.45 2.362-.948.394-.496.527-1.46 1.84-1.66 1.312-.2 2.117.795 2.117.795s.66 1.815-.683 2.976-4.061.071-4.061.071.4-1.02.226-1.004c-.174.017-2.014-.203-2.895 1.582z"/>
    <path fill="#02706c" d="M59.403 43.143s1.694-2.865 7.495 2.249c0 0 .914-3.516 7.854 2.097 6.94 5.613 7.325 6.858 7.325 6.858-.423.787-10.636-20.687-21.09-13.332 0 0-1.35.787-1.584 2.128z"/>
    <path fill="#717171" d="M45.479 42.466s4.226-2.613 5.016-2.594c.79.019.014.431.014.431z"/>
    <path fill="#fbfefb" d="M46.006 43.448s7.958-2.237 6.725.458c-1.234 2.695 3.992.082 5.804.148.262.09.59-2.189 3.013-2.107 0 0 .465-.226.043-.66-.423-.433-10.935-2.187-15.585 2.161z"/>
    <path fill="#2499b3" d="M55.857 29.768s4.785-.629 4.154 2.196c-.631 2.825 1.123-.47 1.132-1.287.008-.818-1.11-1.835-1.53-1.75-.421.086 1.239-1.946-3.756.841z"/>
    <path fill="#415352" d="M44.776 36.629s-.502-12.895 18.477-13.754c0 0 5.551 2.417-2.135 4.585C53.432 29.63 46.906 39.2 46.906 39.2s-2.383.74-2.13-2.571z"/>
    <path fill="#121717" fill-opacity=".839" d="M56.211 32.648c-1.883-.067-2.475 3.07-2.475 3.07 3.875 2.003 3.994-2.434 3.994-2.434-.58-.434-1.084-.62-1.519-.636z"/>
    <path fill="#b4743d" fill-opacity=".839" d="M63.75 31.455c-2.916.084-5.05 1.809-5.626 3.408-.658 1.828-5.365 3.588-5.365 3.588s-4.18 1.679.176.41a15.59 15.59 0 002.141-.792c7.238-3.898 7.61-1.976 9.5-1.566 2.635-3.365.216-3.496.216-3.496s3.824-1.003.254-1.483a7.98 7.98 0 00-1.296-.07z"/>
    <path fill="#fbfefb" d="M66.819 32.056c-.486.03-1.121.46-2.028.951 0 0 .944 1.606-.129 2.775-1.072 1.169 3.023 1.213 3.023 1.213s3.514-1.096 3.156-.353c0 0 .943-.232.783-.973-.16-.74-2.715-3.315-4.065-3.16-.21-.345-.449-.471-.74-.453z"/>
    <path fill="#fff" d="M54.862 34.467s.316-.74.534-.402c.218.339 1.275.453 1.584-.516.309-.97-2.033-.558-2.118.918z"/>
    <path fill="#d08b42" d="M46.906 39.2s2.198-2.993 2.634-3.052c.437-.059 1.348-.15 1.934-.541.586-.392.183 1.28.04 1.276-.14-.004.86-1.022-4.608 2.316"/>
    <path fill="#fff" d="M53.007 35.393s-1.728.197-.608 1.905c1.12 1.709 1.174-2.608.608-1.905z"/>
    <path fill="#455f5d" d="M45.045 36.66c.287.093.44-11.06 15.078-12.82 0 0 4.683 1.965-1.672 4.142-6.355 2.178-11.57 10.892-11.57 10.892s-1.97.735-1.836-2.213z"/>
  </g>
</svg>
