<svg xmlns="http://www.w3.org/2000/svg" width="500" height="500" viewBox="0 0 132.292 132.292">
  <path fill="#be9aa2" d="M.088-.162h132.041v132.826H.088z"/>
  <path fill="#b63333" stroke="#fff" stroke-linecap="round" stroke-linejoin="round" stroke-width="13.229" d="M67.093 25.487a13.18 13.783 0 00-.155 0 13.18 13.783 0 00-.154.003 13.18 13.783 0 00-.155.005 13.18 13.783 0 00-.618.038 13.18 13.783 0 00-.154.015 13.18 13.783 0 00-.154.016 13.18 13.783 0 00-.153.018 13.18 13.783 0 00-.154.02 13.18 13.783 0 00-.306.045 13.18 13.783 0 00-.153.026 13.18 13.783 0 00-.608.12 13.18 13.783 0 00-.15.035 13.18 13.783 0 00-.152.037 13.18 13.783 0 00-.3.079 13.18 13.783 0 00-.15.042 13.18 13.783 0 00-.148.044 13.18 13.783 0 00-.296.094 13.18 13.783 0 00-.147.05 13.18 13.783 0 00-.147.05 13.18 13.783 0 00-.292.109 13.18 13.783 0 00-.145.057 13.18 13.783 0 00-.287.118 13.18 13.783 0 00-.143.062 13.18 13.783 0 00-.142.064 13.18 13.783 0 00-.142.065 13.18 13.783 0 00-.14.068 13.18 13.783 0 00-.28.14 13.18 13.783 0 00-.138.072 13.18 13.783 0 00-.275.15 13.18 13.783 0 00-.135.077 13.18 13.783 0 00-.796.499 13.18 13.783 0 00-.13.089 13.18 13.783 0 00-.256.182 13.18 13.783 0 00-.375.285 13.18 13.783 0 00-.604.506 13.18 13.783 0 00-.117.105 13.18 13.783 0 00-.116.107 13.18 13.783 0 00-.115.108 13.18 13.783 0 00-.338.334 13.18 13.783 0 00-.11.114 13.18 13.783 0 00-.108.115 13.18 13.783 0 00-.107.116 13.18 13.783 0 00-.21.237 13.18 13.783 0 00-.104.121 13.18 13.783 0 00-.102.122 13.18 13.783 0 00-.1.122 13.18 13.783 0 00-.1.125 13.18 13.783 0 00-.098.125 13.18 13.783 0 000 0 13.18 13.783 0 00-.096.127 13.18 13.783 0 00-.28.386 13.18 13.783 0 00-.092.131 13.18 13.783 0 00-.262.4 13.18 13.783 0 00-.085.136 13.18 13.783 0 00-.165.273 13.18 13.783 0 00-.08.139 13.18 13.783 0 00-.078.14 13.18 13.783 0 00-.12.22 13.18 13.783 0 00-.024-.016 13.18 13.783 0 00-.108-.07 13.18 13.783 0 00-.025-.015 13.18 13.783 0 00-.107-.067 13.18 13.783 0 00-.026-.016 13.18 13.783 0 00-.013-.008 13.18 13.783 0 00-.095-.058 13.18 13.783 0 00-.134-.08 13.18 13.783 0 00-.025-.014 13.18 13.783 0 000 0 13.18 13.783 0 00-.111-.063 13.18 13.783 0 00-.021-.012 13.18 13.783 0 00-.005-.003 13.18 13.783 0 00-.012-.007 13.18 13.783 0 00-.098-.055 13.18 13.783 0 00-.025-.013 13.18 13.783 0 00-.001 0 13.18 13.783 0 00-.112-.061 13.18 13.783 0 00-.026-.014 13.18 13.783 0 00-.036-.02 13.18 13.783 0 00-.102-.053 13.18 13.783 0 00-.113-.058 13.18 13.783 0 00-.026-.013 13.18 13.783 0 00-.113-.056 13.18 13.783 0 00-.005-.002 13.18 13.783 0 00-.022-.011 13.18 13.783 0 00-.027-.014 13.18 13.783 0 00-.087-.042 13.18 13.783 0 00-.026-.012 13.18 13.783 0 00-.115-.054 13.18 13.783 0 00-.169-.076 13.18 13.783 0 00-.116-.05 13.18 13.783 0 00-.023-.01 13.18 13.783 0 00-.004-.002 13.18 13.783 0 00-.26-.109 13.18 13.783 0 00-.027-.01 13.18 13.783 0 00-.118-.047 13.18 13.783 0 00-.015-.006 13.18 13.783 0 00-.012-.004 13.18 13.783 0 00-.118-.046 13.18 13.783 0 00-.004-.001 13.18 13.783 0 00-.023-.01 13.18 13.783 0 00-.118-.043 13.18 13.783 0 00-.013-.004 13.18 13.783 0 00-.015-.006 13.18 13.783 0 00-.039-.013 13.18 13.783 0 00-.227-.079 13.18 13.783 0 000 0 13.18 13.783 0 00-.028-.009 13.18 13.783 0 00-.12-.04 13.18 13.783 0 00-.01-.002 13.18 13.783 0 00-.138-.044 13.18 13.783 0 00-.148-.045 13.18 13.783 0 00-.028-.008 13.18 13.783 0 00-.122-.035 13.18 13.783 0 00-.028-.007 13.18 13.783 0 00-.023-.007 13.18 13.783 0 00-.277-.073 13.18 13.783 0 00-.122-.03 13.18 13.783 0 00-.028-.007 13.18 13.783 0 00-.019-.005 13.18 13.783 0 00-.132-.03 13.18 13.783 0 00-.123-.028 13.18 13.783 0 00-.004 0 13.18 13.783 0 00-.025-.006 13.18 13.783 0 00-.123-.026 13.18 13.783 0 00-.028-.006 13.18 13.783 0 00-.043-.008 13.18 13.783 0 00-.233-.044 13.18 13.783 0 00-.029-.005 13.18 13.783 0 00-.124-.021 13.18 13.783 0 00-.02-.003 13.18 13.783 0 00-.009-.002 13.18 13.783 0 00-.277-.042 13.18 13.783 0 00-.029-.004 13.18 13.783 0 00-.032-.004 13.18 13.783 0 00-.206-.027 13.18 13.783 0 00-.04-.004 13.18 13.783 0 00-.091-.01 13.18 13.783 0 00-.063-.008 13.18 13.783 0 00-.029-.002 13.18 13.783 0 00-.125-.012 13.18 13.783 0 00-.014-.001 13.18 13.783 0 00-.015-.002 13.18 13.783 0 00-.125-.01 13.18 13.783 0 00-.03-.002 13.18 13.783 0 00-.124-.01 13.18 13.783 0 00-.001 0 13.18 13.783 0 00-.154-.009 13.18 13.783 0 00-.01 0 13.18 13.783 0 00-.019-.001 13.18 13.783 0 00-.054-.003 13.18 13.783 0 00-.226-.009 13.18 13.783 0 00-.03 0 13.18 13.783 0 00-.125-.003 13.18 13.783 0 00-.029 0 13.18 13.783 0 00-.038 0 13.18 13.783 0 00-.117-.002 13.18 13.783 0 00-.083 0 13.18 13.783 0 00-.54.014 13.18 13.783 0 00-.029.001 13.18 13.783 0 00-.1.006 13.18 13.783 0 00-.04.002 13.18 13.783 0 00-.064.004 13.18 13.783 0 00-.09.006 13.18 13.783 0 00-.066.005 13.18 13.783 0 00-.09.008 13.18 13.783 0 00-.045.004 13.18 13.783 0 00-.005 0 13.18 13.783 0 00-.044.005 13.18 13.783 0 00-.091.008 13.18 13.783 0 00-.063.007 13.18 13.783 0 00-.115.012 13.18 13.783 0 00-.025.003 13.18 13.783 0 00-.097.012 13.18 13.783 0 00-.266.035 13.18 13.783 0 00-.035.006 13.18 13.783 0 00-.262.042 13.18 13.783 0 00-.05.008 13.18 13.783 0 00-.077.014 13.18 13.783 0 00-.106.02 13.18 13.783 0 00-.027.005 13.18 13.783 0 00-.096.019 13.18 13.783 0 00-.105.021 13.18 13.783 0 00-.034.007 13.18 13.783 0 00-.1.022 13.18 13.783 0 00-.073.016 13.18 13.783 0 00-.056.013 13.18 13.783 0 00-.246.06 13.18 13.783 0 00-.056.013 13.18 13.783 0 00-.06.016 13.18 13.783 0 00-.06.016 13.18 13.783 0 00-.008.002 13.18 13.783 0 00-.082.022 13.18 13.783 0 00-.04.012 13.18 13.783 0 00-.013.003 13.18 13.783 0 00-.008.002 13.18 13.783 0 00-.01.003 13.18 13.783 0 00-.01.002 13.18 13.783 0 00-.13.038 13.18 13.783 0 00-.138.042 13.18 13.783 0 00-.028.008 13.18 13.783 0 00-.1.031 13.18 13.783 0 00-.077.025 13.18 13.783 0 00-.089.03 13.18 13.783 0 00-.033.01 13.18 13.783 0 00-.087.03 13.18 13.783 0 00-.258.092 13.18 13.783 0 00-.038.014 13.18 13.783 0 00-.062.024 13.18 13.783 0 00-.08.03 13.18 13.783 0 00-.111.044 13.18 13.783 0 00-.037.014 13.18 13.783 0 00-.062.025 13.18 13.783 0 00-.081.033 13.18 13.783 0 00-.23.098 13.18 13.783 0 00-.06.026 13.18 13.783 0 00-.101.045 13.18 13.783 0 00-.03.014 13.18 13.783 0 00-.075.035 13.18 13.783 0 00-.093.043 13.18 13.783 0 00-.046.022 13.18 13.783 0 00-.085.041 13.18 13.783 0 00-.053.026 13.18 13.783 0 00-.11.055 13.18 13.783 0 00-.003.002 13.18 13.783 0 00-.081.041 13.18 13.783 0 00-.118.06 13.18 13.783 0 00-.047.026 13.18 13.783 0 00-.055.03 13.18 13.783 0 00-.222.122 13.18 13.783 0 00-.09.052 13.18 13.783 0 00-.017.009 13.18 13.783 0 00-.017.01 13.18 13.783 0 00-.009.005 13.18 13.783 0 00-.06.035 13.18 13.783 0 00-.05.029 13.18 13.783 0 00-.04.024 13.18 13.783 0 00-.014.008 13.18 13.783 0 00-.037.023 13.18 13.783 0 00-.133.081 13.18 13.783 0 00-.133.083 13.18 13.783 0 00-.392.26 13.18 13.783 0 00-.129.09 13.18 13.783 0 00-.254.185 13.18 13.783 0 00-.126.094 13.18 13.783 0 00-.248.194 13.18 13.783 0 00-.122.098 13.18 13.783 0 00-.121.1 13.18 13.783 0 00-.12.103 13.18 13.783 0 00-.12.104 13.18 13.783 0 00-.234.21 13.18 13.783 0 00-.229.218 13.18 13.783 0 00-.113.11 13.18 13.783 0 00-.112.112 13.18 13.783 0 00-.327.344 13.18 13.783 0 00-.212.236 13.18 13.783 0 00-.104.12 13.18 13.783 0 00-.204.243 13.18 13.783 0 00-.1.124 13.18 13.783 0 00-.098.125 13.18 13.783 0 00-.097.126 13.18 13.783 0 00-.095.127 13.18 13.783 0 00-.094.129 13.18 13.783 0 00-.093.13 13.18 13.783 0 00-.091.13 13.18 13.783 0 00-.178.265 13.18 13.783 0 00-.087.134 13.18 13.783 0 00-.085.135 13.18 13.783 0 00-.084.136 13.18 13.783 0 00-.32.554 13.18 13.783 0 00-.075.141 13.18 13.783 0 00-.075.142 13.18 13.783 0 00-.213.43 13.18 13.783 0 000 .001 13.18 13.783 0 00-.068.146 13.18 13.783 0 00-.13.292 13.18 13.783 0 00-.064.148 13.18 13.783 0 00-.061.149 13.18 13.783 0 00-.06.15 13.18 13.783 0 00-.114.3 13.18 13.783 0 00-.054.151 13.18 13.783 0 00-.154.458 13.18 13.783 0 00-.047.154 13.18 13.783 0 00-.047.155 13.18 13.783 0 00-.086.31 13.18 13.783 0 00-.041.156 13.18 13.783 0 00-.04.157 13.18 13.783 0 00-.072.314 13.18 13.783 0 00-.034.158 13.18 13.783 0 00-.032.159 13.18 13.783 0 00-.03.158 13.18 13.783 0 00-.028.16 13.18 13.783 0 00-.051.319 13.18 13.783 0 00-.045.32 13.18 13.783 0 00-.019.16 13.18 13.783 0 00-.017.161 13.18 13.783 0 00-.016.16 13.18 13.783 0 000 .001 13.18 13.783 0 00-.014.161 13.18 13.783 0 00-.023.323 13.18 13.783 0 00-.008.162 13.18 13.783 0 00-.007.161 13.18 13.783 0 00-.008.323 13.18 13.783 0 00.005.648 13.18 13.783 0 00.015.323 13.18 13.783 0 00.009.162 13.18 13.783 0 00.012.16 13.18 13.783 0 00.028.323 13.18 13.783 0 00.056.482 13.18 13.783 0 00.022.16 13.18 13.783 0 00.024.16 13.18 13.783 0 00.026.16 13.18 13.783 0 00.014.082 13.18 13.783 0 000 0 13.18 13.783 0 00-.285.093 13.18 13.783 0 00-.027.009 13.18 13.783 0 00-.246.086 13.18 13.783 0 00-.066.024 13.18 13.783 0 00-.059.021 13.18 13.783 0 00-.103.04 13.18 13.783 0 00-.05.019 13.18 13.783 0 00-.062.024 13.18 13.783 0 00-.003.001 13.18 13.783 0 00-.096.038 13.18 13.783 0 00-.048.02 13.18 13.783 0 00-.115.048 13.18 13.783 0 00-.015.005 13.18 13.783 0 00-.268.117 13.18 13.783 0 00-.027.012 13.18 13.783 0 00-.099.045 13.18 13.783 0 00-.039.018 13.18 13.783 0 00-.128.06 13.18 13.783 0 00-.001.001 13.18 13.783 0 00-.003.002 13.18 13.783 0 00-.001 0 13.18 13.783 0 00-.102.05 13.18 13.783 0 00-.056.027 13.18 13.783 0 00-.1.05 13.18 13.783 0 00-.041.021 13.18 13.783 0 00-.08.042 13.18 13.783 0 00-.063.032 13.18 13.783 0 00-.096.051 13.18 13.783 0 00-.023.013 13.18 13.783 0 00-.25.138 13.18 13.783 0 00-.04.023 13.18 13.783 0 00-.074.043 13.18 13.783 0 00-.052.03 13.18 13.783 0 00-.646.406 13.18 13.783 0 00-.004.002 13.18 13.783 0 00-.093.064 13.18 13.783 0 00-.062.042 13.18 13.783 0 00-.084.06 13.18 13.783 0 00-.036.025 13.18 13.783 0 00-.068.048 13.18 13.783 0 00-.089.065 13.18 13.783 0 00-.022.015 13.18 13.783 0 00-.085.063 13.18 13.783 0 00-.088.066 13.18 13.783 0 00-.018.014 13.18 13.783 0 00-.105.08 13.18 13.783 0 00-.017.014 13.18 13.783 0 00-.23.184 13.18 13.783 0 00-.019.015 13.18 13.783 0 00-.222.187 13.18 13.783 0 00-.026.021 13.18 13.783 0 00-.039.034 13.18 13.783 0 00-.064.056 13.18 13.783 0 00-.203.182 13.18 13.783 0 00-.056.052 13.18 13.783 0 00-.03.027 13.18 13.783 0 00-.061.058 13.18 13.783 0 00-.093.088 13.18 13.783 0 00-.05.05 13.18 13.783 0 00-.023.021 13.18 13.783 0 00-.062.06 13.18 13.783 0 00-.09.091 13.18 13.783 0 00-.063.064 13.18 13.783 0 00-.018.019 13.18 13.783 0 00-.084.087 13.18 13.783 0 00-.067.07 13.18 13.783 0 00-.012.012 13.18 13.783 0 00-.395.44 13.18 13.783 0 00-.06.068 13.18 13.783 0 00-.034.042 13.18 13.783 0 00-.068.08 13.18 13.783 0 00-.026.032 13.18 13.783 0 00-.062.076 13.18 13.783 0 00-.058.072 13.18 13.783 0 00-.054.067 13.18 13.783 0 00-.036.046 13.18 13.783 0 00-.041.053 13.18 13.783 0 00-.067.085 13.18 13.783 0 00-.036.048 13.18 13.783 0 00-.072.097 13.18 13.783 0 00-.01.014 13.18 13.783 0 00-.076.102 13.18 13.783 0 00-.038.053 13.18 13.783 0 00-.039.054 13.18 13.783 0 00-.05.07 13.18 13.783 0 00-.058.084 13.18 13.783 0 00-.022.032 13.18 13.783 0 00-.066.096 13.18 13.783 0 00-.04.06 13.18 13.783 0 00-.032.048 13.18 13.783 0 00-.052.078 13.18 13.783 0 00-.052.081 13.18 13.783 0 00-.022.034 13.18 13.783 0 00-.404.673 13.18 13.783 0 000 .001 13.18 13.783 0 00-.071.128 13.18 13.783 0 00-.023.043 13.18 13.783 0 00-.026.047 13.18 13.783 0 00-.061.115 13.18 13.783 0 00-.028.052 13.18 13.783 0 00-.027.052 13.18 13.783 0 00-.197.397 13.18 13.783 0 00-.018.039 13.18 13.783 0 00-.044.094 13.18 13.783 0 00-.025.053 13.18 13.783 0 00-.045.1 13.18 13.783 0 00-.04.088 13.18 13.783 0 00-.003.008 13.18 13.783 0 00-.046.107 13.18 13.783 0 00-.03.067 13.18 13.783 0 00-.094.228 13.18 13.783 0 00-.045.114 13.18 13.783 0 00-.004.009 13.18 13.783 0 00-.05.13 13.18 13.783 0 00-.012.03 13.18 13.783 0 00-.1.273 13.18 13.783 0 00-.015.042 13.18 13.783 0 00-.025.072 13.18 13.783 0 00-.034.098 13.18 13.783 0 00-.023.068 13.18 13.783 0 00-.021.067 13.18 13.783 0 00-.029.087 13.18 13.783 0 00-.021.069 13.18 13.783 0 00-.082.266 13.18 13.783 0 00-.007.025 13.18 13.783 0 00-.083.298 13.18 13.783 0 000 .001 13.18 13.783 0 00-.027.101 13.18 13.783 0 00-.028.108 13.18 13.783 0 00-.01.038 13.18 13.783 0 00-.03.13 13.18 13.783 0 00-.006.021 13.18 13.783 0 00-.023.102 13.18 13.783 0 00-.019.082 13.18 13.783 0 00-.02.094 13.18 13.783 0 00-.015.067 13.18 13.783 0 00-.012.06 13.18 13.783 0 00-.023.113 13.18 13.783 0 00-.01.053 13.18 13.783 0 00-.024.123 13.18 13.783 0 00-.003.014 13.18 13.783 0 00-.024.136 13.18 13.783 0 00-.006.035 13.18 13.783 0 00-.072.458 13.18 13.783 0 00-.001.013 13.18 13.783 0 00-.013.095 13.18 13.783 0 00-.013.097 13.18 13.783 0 00-.026.234 13.18 13.783 0 00-.009.08 13.18 13.783 0 00-.035.407 13.18 13.783 0 00-.007.087 13.18 13.783 0 00-.003.059 13.18 13.783 0 00-.007.115 13.18 13.783 0 00-.003.052 13.18 13.783 0 00-.004.08 13.18 13.783 0 00-.005.095 13.18 13.783 0 00-.002.079 13.18 13.783 0 00-.003.07 13.18 13.783 0 00-.002.106 13.18 13.783 0 00-.001.061 13.18 13.783 0 00-.001.07 13.18 13.783 0 000 .108 13.18 13.783 0 00-.001.074 13.18 13.783 0 000 .162 13.18 13.783 0 00.003.161 13.18 13.783 0 00.005.162 13.18 13.783 0 00.006.162 13.18 13.783 0 00.018.323 13.18 13.783 0 00.026.322 13.18 13.783 0 00.072.643 13.18 13.783 0 00.023.16 13.18 13.783 0 00.024.16 13.18 13.783 0 00.22 1.108 13.18 13.783 0 00.04.157 13.18 13.783 0 00.04.156 13.18 13.783 0 00.18.62 13.18 13.783 0 00.1.306 13.18 13.783 0 00.162.454 13.18 13.783 0 000 0 13.18 13.783 0 00.117.3 13.18 13.783 0 00.253.59 13.18 13.783 0 00.137.29 13.18 13.783 0 00.071.144 13.18 13.783 0 00.072.144 13.18 13.783 0 00.075.141 13.18 13.783 0 00.075.141 13.18 13.783 0 00.156.28 13.18 13.783 0 00.162.275 13.18 13.783 0 00.084.137 13.18 13.783 0 00.17.27 13.18 13.783 0 00.089.132 13.18 13.783 0 00.461.65 13.18 13.783 0 00.097.126 13.18 13.783 0 00.198.249 13.18 13.783 0 00.1.122 13.18 13.783 0 000 0 13.18 13.783 0 00.103.122 13.18 13.783 0 00.103.12 13.18 13.783 0 00.105.119 13.18 13.783 0 00.323.348 13.18 13.783 0 00.222.226 13.18 13.783 0 00.112.111 13.18 13.783 0 00.114.11 13.18 13.783 0 00.116.108 13.18 13.783 0 00.116.106 13.18 13.783 0 000 0 13.18 13.783 0 00.118.106 13.18 13.783 0 00.605.504 13.18 13.783 0 00.123.096 13.18 13.783 0 000 0 13.18 13.783 0 00.126.095 13.18 13.783 0 000 0 13.18 13.783 0 00.126.093 13.18 13.783 0 000 0 13.18 13.783 0 00.128.092 13.18 13.783 0 00.258.178 13.18 13.783 0 00.262.173 13.18 13.783 0 00.132.083 13.18 13.783 0 00.268.163 13.18 13.783 0 000 0 13.18 13.783 0 00.135.078 13.18 13.783 0 00.273.153 13.18 13.783 0 00.138.073 13.18 13.783 0 00.138.073 13.18 13.783 0 000 0 13.18 13.783 0 00.28.139 13.18 13.783 0 000 0 13.18 13.783 0 00.14.066 13.18 13.783 0 00.142.066 13.18 13.783 0 00.142.063 13.18 13.783 0 00.143.062 13.18 13.783 0 000 0 13.18 13.783 0 00.144.06 13.18 13.783 0 00.145.058 13.18 13.783 0 00.145.056 13.18 13.783 0 00.292.108 13.18 13.783 0 00.146.05 13.18 13.783 0 000 0 13.18 13.783 0 00.148.05 13.18 13.783 0 00.445.136 13.18 13.783 0 00.15.042 13.18 13.783 0 00.45.115 13.18 13.783 0 00.607.127 13.18 13.783 0 000 0 13.18 13.783 0 00.153.027 13.18 13.783 0 00.153.025 13.18 13.783 0 00.1.015 13.18 13.783 0 00.028.647 13.18 13.783 0 00.057.644 13.18 13.783 0 00.039.321 13.18 13.783 0 00.022.16 13.18 13.783 0 00.107.638 13.18 13.783 0 00.03.158 13.18 13.783 0 00.034.158 13.18 13.783 0 00.15.628 13.18 13.783 0 00.041.156 13.18 13.783 0 00.089.31 13.18 13.783 0 00.047.154 13.18 13.783 0 00.049.154 13.18 13.783 0 00.102.305 13.18 13.783 0 00.054.152 13.18 13.783 0 00.233.6 13.18 13.783 0 00.062.148 13.18 13.783 0 00.265.584 13.18 13.783 0 00.07.144 13.18 13.783 0 00.457.845 13.18 13.783 0 00.165.274 13.18 13.783 0 00.084.136 13.18 13.783 0 00.174.268 13.18 13.783 0 00.09.132 13.18 13.783 0 00.09.131 13.18 13.783 0 00.185.259 13.18 13.783 0 00.095.128 13.18 13.783 0 00.097.126 13.18 13.783 0 00.097.126 13.18 13.783 0 00.1.124 13.18 13.783 0 00.1.123 13.18 13.783 0 00.416.479 13.18 13.783 0 00.437.458 13.18 13.783 0 00.457.436 13.18 13.783 0 00.117.106 13.18 13.783 0 00.239.206 13.18 13.783 0 00.12.102 13.18 13.783 0 00.37.294 13.18 13.783 0 00.125.095 13.18 13.783 0 00.253.186 13.18 13.783 0 00.258.179 13.18 13.783 0 00.13.087 13.18 13.783 0 00.131.086 13.18 13.783 0 00.321.2 13.18 13.783 0 00.135.08 13.18 13.783 0 00.135.078 13.18 13.783 0 00.273.152 13.18 13.783 0 00.138.074 13.18 13.783 0 00.278.141 13.18 13.783 0 00.281.135 13.18 13.783 0 00.285.128 13.18 13.783 0 00.576.235 13.18 13.783 0 00.293.106 13.18 13.783 0 00.59.192 13.18 13.783 0 00.902.232 13.18 13.783 0 00.456.091 13.18 13.783 0 00.305.052 13.18 13.783 0 00.153.023 13.18 13.783 0 00.307.04 13.18 13.783 0 00.154.017 13.18 13.783 0 00.154.016 13.18 13.783 0 00.309.025 13.18 13.783 0 00.463.023 13.18 13.783 0 00.619.005 13.18 13.783 0 00.154-.004 13.18 13.783 0 00.464-.022 13.18 13.783 0 00.154-.012 13.18 13.783 0 00.155-.013 13.18 13.783 0 00.154-.014 13.18 13.783 0 00.153-.017 13.18 13.783 0 00.154-.02 13.18 13.783 0 00.154-.02 13.18 13.783 0 00.306-.047 13.18 13.783 0 00.152-.026 13.18 13.783 0 00.153-.028 13.18 13.783 0 00.152-.03 13.18 13.783 0 00.303-.066 13.18 13.783 0 00.15-.035 13.18 13.783 0 00.151-.038 13.18 13.783 0 00.15-.04 13.18 13.783 0 00.3-.083 13.18 13.783 0 00.883-.296 13.18 13.783 0 00.29-.113 13.18 13.783 0 00.144-.06 13.18 13.783 0 00.143-.06 13.18 13.783 0 00.426-.193 13.18 13.783 0 00.28-.138 13.18 13.783 0 00.139-.072 13.18 13.783 0 00.138-.073 13.18 13.783 0 00.273-.15 13.18 13.783 0 00.404-.24 13.18 13.783 0 00.264-.167 13.18 13.783 0 00.396.695 13.18 13.783 0 00.169.271 13.18 13.783 0 00.449.658 13.18 13.783 0 00.19.256 13.18 13.783 0 00.603.738 13.18 13.783 0 00.105.119 13.18 13.783 0 00.215.233 13.18 13.783 0 00.108.114 13.18 13.783 0 00.11.114 13.18 13.783 0 00.001 0 13.18 13.783 0 00.339.331 13.18 13.783 0 00.115.108 13.18 13.783 0 00.117.106 13.18 13.783 0 00.118.105 13.18 13.783 0 00.36.306 13.18 13.783 0 00.246.196 13.18 13.783 0 00.125.096 13.18 13.783 0 00.125.095 13.18 13.783 0 00.127.093 13.18 13.783 0 00.257.18 13.18 13.783 0 00.13.089 13.18 13.783 0 000 0 13.18 13.783 0 00.262.17 13.18 13.783 0 00.132.084 13.18 13.783 0 00.404.24 13.18 13.783 0 00.411.226 13.18 13.783 0 00.278.14 13.18 13.783 0 000 0 13.18 13.783 0 00.281.136 13.18 13.783 0 00.285.128 13.18 13.783 0 00.143.06 13.18 13.783 0 000 0 13.18 13.783 0 00.288.118 13.18 13.783 0 00.146.056 13.18 13.783 0 00.292.106 13.18 13.783 0 00.147.05 13.18 13.783 0 00.295.096 13.18 13.783 0 00.298.089 13.18 13.783 0 00.15.041 13.18 13.783 0 00.15.04 13.18 13.783 0 00.15.038 13.18 13.783 0 00.606.132 13.18 13.783 0 00.152.029 13.18 13.783 0 00.306.05 13.18 13.783 0 00.153.024 13.18 13.783 0 00.153.02 13.18 13.783 0 00.154.02 13.18 13.783 0 00.154.017 13.18 13.783 0 00.154.015 13.18 13.783 0 00.308.025 13.18 13.783 0 00.155.01 13.18 13.783 0 00.309.013 13.18 13.783 0 00.396.007 13.18 13.783 0 00.31-.005 13.18 13.783 0 00.154-.004 13.18 13.783 0 00.31-.016 13.18 13.783 0 00.154-.01 13.18 13.783 0 00.308-.026 13.18 13.783 0 00.154-.017 13.18 13.783 0 00.154-.017 13.18 13.783 0 00.307-.042 13.18 13.783 0 00.306-.05 13.18 13.783 0 00.607-.12 13.18 13.783 0 00.452-.11 13.18 13.783 0 00.449-.127 13.18 13.783 0 00.148-.046 13.18 13.783 0 00.148-.048 13.18 13.783 0 00.294-.1 13.18 13.783 0 00.436-.165 13.18 13.783 0 00.145-.059 13.18 13.783 0 00.143-.06 13.18 13.783 0 00.143-.062 13.18 13.783 0 00.284-.13 13.18 13.783 0 00.558-.278 13.18 13.783 0 00.274-.15 13.18 13.783 0 00.136-.078 13.18 13.783 0 00.535-.326 13.18 13.783 0 00.131-.085 13.18 13.783 0 00.13-.088 13.18 13.783 0 00.385-.27 13.18 13.783 0 00.053-.04c4.262-.396 7.06.14 9.904 2.291 2.952 2.235 6.04 6.546 9.868 13.939a2.237 2.34 0 004.094-.392c1.598-5.143 1.467-11.138.503-16.28-.482-2.572-1.178-4.925-2.063-6.881-.64-1.416-1.335-2.665-2.315-3.613a13.18 13.783 0 00.088-.234 13.18 13.783 0 00.055-.151 13.18 13.783 0 00.053-.152 13.18 13.783 0 00.148-.46 13.18 13.783 0 00.173-.621 13.18 13.783 0 00.04-.157 13.18 13.783 0 00.036-.157 13.18 13.783 0 00.07-.315 13.18 13.783 0 00.032-.158 13.18 13.783 0 00.03-.159 13.18 13.783 0 00.028-.16 13.18 13.783 0 00.096-.638 13.18 13.783 0 00.037-.322 13.18 13.783 0 00.015-.16 13.18 13.783 0 00.014-.162 13.18 13.783 0 00.012-.161 13.18 13.783 0 00.014-1.779 13.18 13.783 0 000-.008 13.18 13.783 0 00.286-.123 13.18 13.783 0 00.84-.413 13.18 13.783 0 00.138-.075 13.18 13.783 0 00.136-.076 13.18 13.783 0 00.27-.158 13.18 13.783 0 00.133-.081 13.18 13.783 0 00.265-.168 13.18 13.783 0 00.39-.263 13.18 13.783 0 00.255-.184 13.18 13.783 0 00.25-.19 13.18 13.783 0 00.368-.296 13.18 13.783 0 00.475-.416 13.18 13.783 0 00.23-.216 13.18 13.783 0 00.113-.11 13.18 13.783 0 00.112-.112 13.18 13.783 0 00.11-.113 13.18 13.783 0 00.218-.23 13.18 13.783 0 00.52-.599 13.18 13.783 0 00.1-.123 13.18 13.783 0 00.571-.765 13.18 13.783 0 00.265-.398 13.18 13.783 0 00.17-.271 13.18 13.783 0 00.083-.137 13.18 13.783 0 00.08-.138 13.18 13.783 0 00.158-.279 13.18 13.783 0 00.076-.14 13.18 13.783 0 00.075-.142 13.18 13.783 0 00.144-.286 13.18 13.783 0 00.139-.29 13.18 13.783 0 00.131-.293 13.18 13.783 0 00.063-.147 13.18 13.783 0 00.062-.149 13.18 13.783 0 00.06-.149 13.18 13.783 0 00.17-.451 13.18 13.783 0 00.053-.152 13.18 13.783 0 00.101-.306 13.18 13.783 0 00.048-.154 13.18 13.783 0 00.091-.31 13.18 13.783 0 00.084-.31 13.18 13.783 0 00.077-.314 13.18 13.783 0 00.102-.474 13.18 13.783 0 00.03-.158 13.18 13.783 0 00.03-.16 13.18 13.783 0 00.026-.158 13.18 13.783 0 00.025-.16 13.18 13.783 0 00.023-.16 13.18 13.783 0 00.06-.482 13.18 13.783 0 00.016-.16 13.18 13.783 0 00.027-.323 13.18 13.783 0 00.032-.646 13.18 13.783 0 00.004-.162 13.18 13.783 0 00.002-.162 13.18 13.783 0 000-.065 13.18 13.783 0 00-.004-.324 13.18 13.783 0 00-.005-.161 13.18 13.783 0 00-.015-.324 13.18 13.783 0 00-.035-.484 13.18 13.783 0 00-.016-.16 13.18 13.783 0 00-.017-.161 13.18 13.783 0 00-.062-.481 13.18 13.783 0 00-.025-.16 13.18 13.783 0 00-.026-.16 13.18 13.783 0 00-.09-.476 13.18 13.783 0 00-.183-.785 13.18 13.783 0 00-.043-.156 13.18 13.783 0 00-.136-.464 13.18 13.783 0 00-.38-1.06 13.18 13.783 0 00-.124-.297 13.18 13.783 0 00-.064-.147 13.18 13.783 0 00-.133-.292 13.18 13.783 0 00-.07-.145 13.18 13.783 0 00-.07-.143 13.18 13.783 0 00-.073-.144 13.18 13.783 0 00-.15-.283 13.18 13.783 0 00-.077-.14 13.18 13.783 0 00-.41-.686 13.18 13.783 0 00-.173-.268 13.18 13.783 0 00-.09-.131 13.18 13.783 0 00-.09-.132 13.18 13.783 0 00-.187-.258 13.18 13.783 0 00-.095-.128 13.18 13.783 0 00-.195-.251 13.18 13.783 0 00-.1-.124 13.18 13.783 0 00-.202-.244 13.18 13.783 0 00-.104-.12 13.18 13.783 0 00-.211-.237 13.18 13.783 0 00-.108-.116 13.18 13.783 0 00-.219-.228 13.18 13.783 0 00-.111-.113 13.18 13.783 0 00-.113-.11 13.18 13.783 0 00-.345-.324 13.18 13.783 0 00-.118-.106 13.18 13.783 0 00-.119-.104 13.18 13.783 0 00-.363-.302 13.18 13.783 0 00-.247-.194 13.18 13.783 0 00-.252-.188 13.18 13.783 0 00-.516-.357 13.18 13.783 0 00-.132-.086 13.18 13.783 0 00-.132-.084 13.18 13.783 0 00-.267-.162 13.18 13.783 0 00-.136-.078 13.18 13.783 0 00-.136-.078 13.18 13.783 0 00-.413-.22 13.18 13.783 0 00-.14-.071 13.18 13.783 0 00-.14-.069 13.18 13.783 0 00-.282-.132 13.18 13.783 0 00-.285-.125 13.18 13.783 0 00-.144-.06 13.18 13.783 0 00-.144-.058 13.18 13.783 0 00-.145-.056 13.18 13.783 0 00-.146-.055 13.18 13.783 0 00-.293-.104 13.18 13.783 0 00-1.193-.342 13.18 13.783 0 000 0 13.18 13.783 0 00-.23-.052 13.18 13.783 0 00.006-.034 13.18 13.783 0 00.005-.03 13.18 13.783 0 00.004-.032 13.18 13.783 0 00.01-.064 13.18 13.783 0 00.01-.064 13.18 13.783 0 00.013-.096 13.18 13.783 0 00.004-.032 13.18 13.783 0 00.016-.128 13.18 13.783 0 000-.006 13.18 13.783 0 00.02-.154 13.18 13.783 0 00.032-.322 13.18 13.783 0 00.006-.065 13.18 13.783 0 00.007-.096 13.18 13.783 0 00.005-.065 13.18 13.783 0 00.002-.03 13.18 13.783 0 00.015-.228 13.18 13.783 0 00.002-.035 13.18 13.783 0 00.004-.075 13.18 13.783 0 00.003-.052 13.18 13.783 0 00.003-.065 13.18 13.783 0 00.004-.096 13.18 13.783 0 00.002-.065 13.18 13.783 0 000-.032 13.18 13.783 0 00.002-.065 13.18 13.783 0 00.001-.065 13.18 13.783 0 000 0 13.18 13.783 0 00.002-.145 13.18 13.783 0 000-.016 13.18 13.783 0 000-.098 13.18 13.783 0 000-.021 13.18 13.783 0 000-.14 13.18 13.783 0 00-.001-.065 13.18 13.783 0 00-.006-.259 13.18 13.783 0 00-.003-.065 13.18 13.783 0 00-.004-.096 13.18 13.783 0 00-.003-.065 13.18 13.783 0 00-.002-.036 13.18 13.783 0 00-.007-.122 13.18 13.783 0 000-.004 13.18 13.783 0 000-.008 13.18 13.783 0 00-.006-.089 13.18 13.783 0 00-.005-.064 13.18 13.783 0 000-.015 13.18 13.783 0 00-.007-.082 13.18 13.783 0 00-.005-.053 13.18 13.783 0 000-.012 13.18 13.783 0 00-.003-.035 13.18 13.783 0 00-.012-.127 13.18 13.783 0 00-.016-.16 13.18 13.783 0 000-.01 13.18 13.783 0 00-.038-.31 13.18 13.783 0 00-.012-.097 13.18 13.783 0 00-.009-.064 13.18 13.783 0 00-.018-.128 13.18 13.783 0 00-.02-.128 13.18 13.783 0 00-.002-.008 13.18 13.783 0 00-.024-.151 13.18 13.783 0 00-.007-.037 13.18 13.783 0 00-.005-.027 13.18 13.783 0 00-.017-.095 13.18 13.783 0 00-.003-.018 13.18 13.783 0 00-.027-.14 13.18 13.783 0 00-.008-.045 13.18 13.783 0 00-.004-.02 13.18 13.783 0 00-.02-.094 13.18 13.783 0 00-.005-.029 13.18 13.783 0 00-.007-.035 13.18 13.783 0 00-.007-.031 13.18 13.783 0 00-.013-.064 13.18 13.783 0 00-.014-.063 13.18 13.783 0 00-.097-.408 13.18 13.783 0 00-.016-.062 13.18 13.783 0 00-.078-.292 13.18 13.783 0 00-.006-.02 13.18 13.783 0 00-.026-.093 13.18 13.783 0 00-.009-.03 13.18 13.783 0 00-.009-.032 13.18 13.783 0 00-.027-.092 13.18 13.783 0 00-.004-.014 13.18 13.783 0 00-.03-.097 13.18 13.783 0 00-.013-.044 13.18 13.783 0 00-.02-.061 13.18 13.783 0 00-.03-.092 13.18 13.783 0 00-.006-.021 13.18 13.783 0 00-.013-.04 13.18 13.783 0 00-.03-.092 13.18 13.783 0 00-.022-.06 13.18 13.783 0 00-.032-.092 13.18 13.783 0 00-.021-.06 13.18 13.783 0 00-.008-.023 13.18 13.783 0 00-.08-.22 13.18 13.783 0 00-.023-.06 13.18 13.783 0 00-.035-.09 13.18 13.783 0 00-.018-.044 13.18 13.783 0 00-.005-.015 13.18 13.783 0 00-.006-.015 13.18 13.783 0 00-.051-.127 13.18 13.783 0 00-.003-.008 13.18 13.783 0 00-.037-.088 13.18 13.783 0 00-.025-.06 13.18 13.783 0 00-.038-.088 13.18 13.783 0 00-.013-.031 13.18 13.783 0 00-.012-.029 13.18 13.783 0 00-.039-.088 13.18 13.783 0 00-.026-.059 13.18 13.783 0 00-.016-.034 13.18 13.783 0 00-.023-.053 13.18 13.783 0 00-.028-.058 13.18 13.783 0 00-.04-.087 13.18 13.783 0 00-.028-.059 13.18 13.783 0 00-.041-.086 13.18 13.783 0 00-.012-.023 13.18 13.783 0 00-.016-.035 13.18 13.783 0 00-.043-.086 13.18 13.783 0 00-.028-.056 13.18 13.783 0 00-.001-.002 13.18 13.783 0 00-.001-.001 13.18 13.783 0 00-.042-.084 13.18 13.783 0 00-.03-.057 13.18 13.783 0 00-.044-.085 13.18 13.783 0 00-.016-.029 13.18 13.783 0 00-.015-.028 13.18 13.783 0 00-.045-.085 13.18 13.783 0 00-.016-.027 13.18 13.783 0 00-.015-.029 13.18 13.783 0 00-.01-.017 13.18 13.783 0 00-.147-.261 13.18 13.783 0 00-.049-.083 13.18 13.783 0 00-.032-.055 13.18 13.783 0 00-.05-.083 13.18 13.783 0 00-.016-.027 13.18 13.783 0 00-.016-.027 13.18 13.783 0 00-.05-.081 13.18 13.783 0 00-.028-.045 13.18 13.783 0 00-.007-.01 13.18 13.783 0 00-.007-.01 13.18 13.783 0 00-.044-.07 13.18 13.783 0 00-.035-.055 13.18 13.783 0 00-.052-.08 13.18 13.783 0 00-.035-.053 13.18 13.783 0 00-.053-.08 13.18 13.783 0 00-.02-.03 13.18 13.783 0 00-.015-.023 13.18 13.783 0 00-.054-.079 13.18 13.783 0 00-.03-.043 13.18 13.783 0 00-.007-.01 13.18 13.783 0 00-.005-.007 13.18 13.783 0 00-.087-.123 13.18 13.783 0 00-.055-.078 13.18 13.783 0 00-.029-.04 13.18 13.783 0 00-.009-.011 13.18 13.783 0 00-.006-.01 13.18 13.783 0 00-.05-.068 13.18 13.783 0 00-.095-.127 13.18 13.783 0 00-.039-.05 13.18 13.783 0 00-.058-.076 13.18 13.783 0 00-.039-.05 13.18 13.783 0 00-.059-.075 13.18 13.783 0 00-.04-.05 13.18 13.783 0 00-.06-.074 13.18 13.783 0 00-.013-.017 13.18 13.783 0 00-.026-.032 13.18 13.783 0 00-.027-.032 13.18 13.783 0 00-.034-.042 13.18 13.783 0 00-.041-.049 13.18 13.783 0 00-.007-.008 13.18 13.783 0 00-.054-.064 13.18 13.783 0 00-.042-.048 13.18 13.783 0 00-.062-.073 13.18 13.783 0 00-.042-.047 13.18 13.783 0 00-.1-.113 13.18 13.783 0 00-.005-.006 13.18 13.783 0 00-.01-.01 13.18 13.783 0 00-.09-.099 13.18 13.783 0 00-.007-.008 13.18 13.783 0 00-.01-.011 13.18 13.783 0 00-.055-.058 13.18 13.783 0 00-.043-.047 13.18 13.783 0 00-.066-.068 13.18 13.783 0 00-.11-.114 13.18 13.783 0 00-.044-.045 13.18 13.783 0 00-.112-.111 13.18 13.783 0 00-.068-.067 13.18 13.783 0 00-.037-.036 13.18 13.783 0 00-.008-.008 13.18 13.783 0 00-.009-.008 13.18 13.783 0 00-.338-.314 13.18 13.783 0 00-.07-.063 13.18 13.783 0 00-.03-.026 13.18 13.783 0 00-.018-.016 13.18 13.783 0 00-.071-.062 13.18 13.783 0 00-.026-.022 13.18 13.783 0 00-.022-.02 13.18 13.783 0 00-.029-.024 13.18 13.783 0 00-.164-.137 13.18 13.783 0 00-.049-.04 13.18 13.783 0 00-.098-.08 13.18 13.783 0 00-.099-.077 13.18 13.783 0 00-.05-.04 13.18 13.783 0 00-.008-.006 13.18 13.783 0 00-.066-.05 13.18 13.783 0 00-.05-.039 13.18 13.783 0 00-.075-.056 13.18 13.783 0 00-.05-.038 13.18 13.783 0 00-.032-.023 13.18 13.783 0 00-.22-.16 13.18 13.783 0 00-.003 0 13.18 13.783 0 00-.005-.004 13.18 13.783 0 00-.124-.086 13.18 13.783 0 00-.078-.053 13.18 13.783 0 00-.052-.035 13.18 13.783 0 00-.03-.02 13.18 13.783 0 00-.049-.032 13.18 13.783 0 00-.052-.034 13.18 13.783 0 00-.08-.052 13.18 13.783 0 00-.052-.033 13.18 13.783 0 00-.08-.05 13.18 13.783 0 00-.053-.033 13.18 13.783 0 00-.08-.05 13.18 13.783 0 00-.028-.016 13.18 13.783 0 00-.27-.159 13.18 13.783 0 00-.136-.076 13.18 13.783 0 00-.137-.075 13.18 13.783 0 00-.138-.074 13.18 13.783 0 00-.418-.21 13.18 13.783 0 00-.141-.066 13.18 13.783 0 00-.142-.065 13.18 13.783 0 000 0 13.18 13.783 0 00-.142-.063 13.18 13.783 0 000 0 13.18 13.783 0 00-.144-.061 13.18 13.783 0 00-.579-.228 13.18 13.783 0 00-.588-.198 13.18 13.783 0 000 0 13.18 13.783 0 00-.15-.046 13.18 13.783 0 00-.148-.043 13.18 13.783 0 00-.3-.081 13.18 13.783 0 00-.15-.038 13.18 13.783 0 00-.15-.036 13.18 13.783 0 00-.152-.035 13.18 13.783 0 00-.152-.032 13.18 13.783 0 00-.457-.085 13.18 13.783 0 00-.152-.025 13.18 13.783 0 00-.154-.023 13.18 13.783 0 00-.153-.02 13.18 13.783 0 00-.154-.02 13.18 13.783 0 00-.462-.046 13.18 13.783 0 00-.308-.021 13.18 13.783 0 00-.155-.008 13.18 13.783 0 00-.155-.006 13.18 13.783 0 00-.155-.004 13.18 13.783 0 00-.286-.002h0a13.18 13.783 0 00-.055 0 13.18 13.783 0 00-.073 0 13.18 13.783 0 00-.027.001 13.18 13.783 0 00-.295.008 13.18 13.783 0 00-.057.003 13.18 13.783 0 00-.112.005 13.18 13.783 0 00-.128.007 13.18 13.783 0 00-.154.01 13.18 13.783 0 00-.312.028 13.18 13.783 0 00-.087.009 13.18 13.783 0 00-.063.007 13.18 13.783 0 00-.027.003 13.18 13.783 0 00-.154.018 13.18 13.783 0 00-.135.018 13.18 13.783 0 00-.05.007 13.18 13.783 0 00-.122.018 13.18 13.783 0 00-.126.02 13.18 13.783 0 00-.125.02 13.18 13.783 0 00-.038.007 13.18 13.783 0 00-.047.009 13.18 13.783 0 00-.122.022 13.18 13.783 0 00-.301.06 13.18 13.783 0 00-.011.003 13.18 13.783 0 00-.143.032 13.18 13.783 0 00-.134.03 13.18 13.783 0 00-.14.035 13.18 13.783 0 00-.024.006 13.18 13.783 0 00-.048.013 13.18 13.783 0 00-.085.022 13.18 13.783 0 00-.086.023 13.18 13.783 0 00-.078.021 13.18 13.783 0 00-.026.008 13.18 13.783 0 00-.13.037 13.18 13.783 0 00-.122.036 13.18 13.783 0 00-.172.054 13.18 13.783 0 00-.007.002 13.18 13.783 0 00-.143.047 13.18 13.783 0 00-.13.044 13.18 13.783 0 00-.06.021 13.18 13.783 0 00-.23.083 13.18 13.783 0 00-.088.033 13.18 13.783 0 00-.052.02 13.18 13.783 0 00-.025.01 13.18 13.783 0 00-.091.035 13.18 13.783 0 00-.091-.13 13.18 13.783 0 00-.092-.13 13.18 13.783 0 00-.094-.13 13.18 13.783 0 00-.094-.125 13.18 13.783 0 00-.002-.002 13.18 13.783 0 00-.024-.032 13.18 13.783 0 00-.07-.092 13.18 13.783 0 00-.002-.002 13.18 13.783 0 00-.064-.08 13.18 13.783 0 00-.035-.045 13.18 13.783 0 00-.04-.051 13.18 13.783 0 00-.058-.071 13.18 13.783 0 00-.001-.002 13.18 13.783 0 00-.048-.059 13.18 13.783 0 00-.053-.064 13.18 13.783 0 00-.1-.12 13.18 13.783 0 00-.002 0 13.18 13.783 0 00-.102-.12 13.18 13.783 0 00-.002 0 13.18 13.783 0 00-.024-.028 13.18 13.783 0 00-.081-.092 13.18 13.783 0 00-.041-.046 13.18 13.783 0 00-.173-.188 13.18 13.783 0 00-.109-.115 13.18 13.783 0 00-.108-.112 13.18 13.783 0 00-.002-.001 13.18 13.783 0 00-.097-.098 13.18 13.783 0 00-.014-.014 13.18 13.783 0 00-.111-.11 13.18 13.783 0 00-.002-.001 13.18 13.783 0 00-.112-.108 13.18 13.783 0 00-.002-.002 13.18 13.783 0 00-.075-.07 13.18 13.783 0 00-.04-.038 13.18 13.783 0 00-.115-.105 13.18 13.783 0 00-.001-.001 13.18 13.783 0 00-.116-.104 13.18 13.783 0 00-.002-.002 13.18 13.783 0 00-.046-.04 13.18 13.783 0 00-.073-.063 13.18 13.783 0 00-.118-.1 13.18 13.783 0 00-.002-.002 13.18 13.783 0 00-.119-.1 13.18 13.783 0 00-.002-.001 13.18 13.783 0 00-.12-.098 13.18 13.783 0 00-.002-.002 13.18 13.783 0 00-.121-.096 13.18 13.783 0 00-.002-.001 13.18 13.783 0 00-.123-.095 13.18 13.783 0 00-.001-.002 13.18 13.783 0 00-.124-.093 13.18 13.783 0 00-.002-.001 13.18 13.783 0 00-.013-.01 13.18 13.783 0 00-.032-.024 13.18 13.783 0 00-.082-.06 13.18 13.783 0 00-.125-.09 13.18 13.783 0 00-.002-.001 13.18 13.783 0 00-.04-.028 13.18 13.783 0 00-.087-.061 13.18 13.783 0 00-.002-.001 13.18 13.783 0 00-.078-.054 13.18 13.783 0 00-.051-.035 13.18 13.783 0 00-.128-.085 13.18 13.783 0 00-.002-.002 13.18 13.783 0 00-.13-.084 13.18 13.783 0 00-.002 0 13.18 13.783 0 00-.054-.035 13.18 13.783 0 00-.078-.05 13.18 13.783 0 00-.132-.08 13.18 13.783 0 00-.002-.002 13.18 13.783 0 00-.132-.079 13.18 13.783 0 00-.002 0 13.18 13.783 0 00-.133-.078 13.18 13.783 0 00-.002-.001 13.18 13.783 0 00-.134-.076 13.18 13.783 0 00-.002-.001 13.18 13.783 0 00-.135-.075 13.18 13.783 0 00-.002 0 13.18 13.783 0 00-.136-.073 13.18 13.783 0 00-.002-.001 13.18 13.783 0 00-.136-.072 13.18 13.783 0 00-.002 0 13.18 13.783 0 00-.137-.07 13.18 13.783 0 00-.003 0 13.18 13.783 0 00-.097-.048 13.18 13.783 0 00-.043-.021 13.18 13.783 0 00-.139-.066 13.18 13.783 0 00-.002-.001 13.18 13.783 0 00-.14-.064 13.18 13.783 0 00-.001-.001 13.18 13.783 0 00-.14-.063 13.18 13.783 0 00-.003 0 13.18 13.783 0 00-.049-.022 13.18 13.783 0 00-.092-.04 13.18 13.783 0 00-.002 0 13.18 13.783 0 00-.141-.06 13.18 13.783 0 00-.147-.058 13.18 13.783 0 00-.07-.027 13.18 13.783 0 00-.075-.03 13.18 13.783 0 00-.143-.053 13.18 13.783 0 00-.003-.001 13.18 13.783 0 00-.06-.022 13.18 13.783 0 00-.084-.03 13.18 13.783 0 00-.002 0 13.18 13.783 0 00-.144-.051 13.18 13.783 0 00-.002 0 13.18 13.783 0 00-.145-.05 13.18 13.783 0 00-.003 0 13.18 13.783 0 00-.145-.047 13.18 13.783 0 00-.003 0 13.18 13.783 0 00-.146-.045 13.18 13.783 0 00-.002 0 13.18 13.783 0 00-.147-.044 13.18 13.783 0 00-.002 0 13.18 13.783 0 00-.147-.042 13.18 13.783 0 00-.003 0 13.18 13.783 0 00-.147-.04 13.18 13.783 0 00-.002 0 13.18 13.783 0 00-.149-.038 13.18 13.783 0 00-.002 0 13.18 13.783 0 00-.053-.013 13.18 13.783 0 00-.095-.023 13.18 13.783 0 00-.003 0 13.18 13.783 0 00-.148-.035 13.18 13.783 0 00-.003 0 13.18 13.783 0 00-.149-.032 13.18 13.783 0 00-.002 0 13.18 13.783 0 00-.15-.031 13.18 13.783 0 00-.002 0 13.18 13.783 0 00-.15-.03 13.18 13.783 0 00-.002 0 13.18 13.783 0 00-.049-.008 13.18 13.783 0 00-.41-.067 13.18 13.783 0 00-.05-.007 13.18 13.783 0 00-.257-.034 13.18 13.783 0 00-.077-.009 13.18 13.783 0 00-.074-.008 13.18 13.783 0 00-.002 0 13.18 13.783 0 000 0 13.18 13.783 0 00-.152-.016 13.18 13.783 0 00-.309-.026 13.18 13.783 0 00-.002 0 13.18 13.783 0 00-.152-.01 13.18 13.783 0 00-.618-.021 13.18 13.783 0 00-.003 0 13.18 13.783 0 00-.122 0z"/>
  <g stroke-width="2.891">
    <g fill="#a02c2c" color="#000" font-family="sans-serif" font-weight="400">
      <path d="M76.061 87.282c9.663-1.033 14.681 2.369 22.46 17.396 2.841-9.15-.325-22.827-4.071-24.942l-17.553 3.628z" overflow="visible" style="line-height:normal;font-variant-ligatures:normal;font-variant-position:normal;font-variant-caps:normal;font-variant-numeric:normal;font-variant-alternates:normal;font-variant-east-asian:normal;font-feature-settings:normal;font-variation-settings:normal;text-indent:0;text-align:start;text-decoration-line:none;text-decoration-style:solid;text-decoration-color:#000;text-transform:none;text-orientation:mixed;white-space:normal;shape-padding:0;shape-margin:0;inline-size:0;isolation:auto;mix-blend-mode:normal;solid-color:#000;solid-opacity:1"/>
      <path d="M94.46 77.397a2.237 2.34 0 00-.444.044L76.463 81.07a2.237 2.34 0 00-1.75 1.785l-.835 3.918a2.237 2.34 0 002.41 2.837c4.546-.486 7.445.01 10.398 2.244 2.952 2.235 6.04 6.545 9.868 13.938a2.237 2.34 0 004.095-.39c1.597-5.144 1.466-11.14.502-16.282-.482-2.572-1.178-4.924-2.063-6.88-.885-1.957-1.868-3.597-3.576-4.561a2.237 2.34 0 00-1.053-.281zm-.654 4.857c.34.392.786.985 1.238 1.985.674 1.49 1.294 3.524 1.717 5.78.462 2.469.65 5.195.55 7.827-2.663-4.452-5.177-7.646-8.002-9.784-2.58-1.953-5.414-2.848-8.492-3.124z" overflow="visible" style="line-height:normal;font-variant-ligatures:normal;font-variant-position:normal;font-variant-caps:normal;font-variant-numeric:normal;font-variant-alternates:normal;font-variant-east-asian:normal;font-feature-settings:normal;font-variation-settings:normal;text-indent:0;text-align:start;text-decoration-line:none;text-decoration-style:solid;text-decoration-color:#000;text-transform:none;text-orientation:mixed;white-space:normal;shape-padding:0;shape-margin:0;inline-size:0;isolation:auto;mix-blend-mode:normal;solid-color:#000;solid-opacity:1"/>
    </g>
    <path fill="#d76e6e" d="M76.061 87.282c9.663-1.033 14.681 2.369 22.46 17.396 2.841-9.15-.325-22.827-4.071-24.942l-17.553 3.628z"/>
    <path fill="#b63333" d="M94.45 79.736l-17.553 3.628-.836 3.918c4.99-.533 8.742.116 12.275 2.939a13.18 13.783 0 002.772-1.256 13.18 13.783 0 005.548-6.565c-.678-1.289-1.43-2.225-2.206-2.664z" opacity=".456"/>
    <path fill="#e9afaf" d="M67.094 25.485a13.18 13.783 0 00-11.517 7.082 13.18 13.783 0 00-6.947-2.078 13.18 13.783 0 00-6.602 1.846 13.18 13.783 0 00-6.377 14.401 13.18 13.783 0 00-9.435 13.214 13.18 13.783 0 0011.306 13.643 13.18 13.783 0 006.586 11.647 13.18 13.783 0 0013.55-.233 13.18 13.783 0 0011.517 7.083 13.18 13.783 0 0010.708-5.748 13.18 13.783 0 0011.263-.95 13.18 13.783 0 006.569-12.72A13.18 13.783 0 00106 59.875a13.18 13.783 0 00-10.524-13.5 13.18 13.783 0 00-6.411-14.192 13.18 13.783 0 00-6.602-1.846 13.18 13.783 0 00-4.662.896 13.18 13.783 0 00-10.708-5.748z"/>
    <path fill="#de8787" d="M39.395 46.168a13.18 13.783 0 00-13.18 13.782 13.18 13.783 0 0013.18 13.783 13.18 13.783 0 00.572-.013 16.076 16.812 0 01-2.97-9.735 16.076 16.812 0 019.766-15.462 13.18 13.783 0 00-7.368-2.355z"/>
    <path fill="#de8787" d="M48.565 30.489a13.18 13.783 0 00-6.537 1.846 13.18 13.783 0 00-4.824 18.828 13.18 13.783 0 001.32 1.972 16.076 16.812 0 0115.93-14.554 16.076 16.812 0 016.732 1.544 13.18 13.783 0 00-1.155-2.745 13.18 13.783 0 00-11.466-6.891z"/>
    <path fill="#de8787" d="M67.094 25.485A13.18 13.783 0 0054.079 37.1l3.543.053a16.076 16.812 0 018.054-2.262 16.076 16.812 0 0113.986 8.524 13.18 13.783 0 00.611-4.148 13.18 13.783 0 00-13.179-13.782z"/>
    <path fill="#de8787" d="M82.437 30.337a13.18 13.783 0 00-9.472 4.242l1.621.042 1.01 2.72a16.076 16.812 0 0114.84 16.761 16.076 16.812 0 01-.03 1.026 13.18 13.783 0 003.483-4.117 13.18 13.783 0 00-4.823-18.827 13.18 13.783 0 00-6.63-1.847z"/>
    <path fill="#f3d5d5" d="M40.913 71.094a11.175 11.687 0 005.586 10.3 11.175 11.687 0 0011.883-.465 14.004 14.244 0 01-10.98-1.321 14.004 14.244 0 01-6.49-8.514zM58.383 79.107a11.175 11.687 0 005.169 6.955 11.175 11.687 0 0013.86-2.264l-.515-.434a14.004 14.244 0 01-13.989-.01 14.004 14.244 0 01-4.525-4.247z"/>
    <path fill="#a02c2c" d="M67.094 25.485a13.18 13.783 0 00-11.517 7.082 13.18 13.783 0 00-6.947-2.078 13.18 13.783 0 00-6.602 1.846 13.18 13.783 0 00-6.377 14.401 13.18 13.783 0 00-9.435 13.214 13.18 13.783 0 0011.306 13.643 13.18 13.783 0 006.586 11.647 13.18 13.783 0 0013.55-.233 13.18 13.783 0 0011.517 7.083 13.18 13.783 0 0010.708-5.748 13.18 13.783 0 0011.263-.95 13.18 13.783 0 006.569-12.72A13.18 13.783 0 00106 59.875a13.18 13.783 0 00-10.524-13.5 13.18 13.783 0 00-6.411-14.192 13.18 13.783 0 00-6.602-1.846 13.18 13.783 0 00-4.662.896 13.18 13.783 0 00-10.708-5.748zm-.038 3.573A11.965 12.513 0 0179.02 41.571a11.965 12.513 0 01-1.617 6.28 13.18 13.783 0 002.87-8.584 13.18 13.783 0 00-1.068-5.432 11.965 12.513 0 018.184 1.463 11.965 12.513 0 014.38 17.093 11.965 12.513 0 01-4.047 4.372 13.18 13.783 0 006.167-5.752 13.18 13.783 0 001.148-2.724 11.965 12.513 0 017.545 11.627 11.965 12.513 0 01-11.965 12.513 11.965 12.513 0 01-5.643-1.48 13.18 13.783 0 007.846 2.71 13.18 13.783 0 002.483-.247 11.965 12.513 0 01-5.833 8.867 11.965 12.513 0 01-16.345-4.58 11.965 12.513 0 01-1.603-6.285 13.18 13.783 0 001.62 8.935 13.18 13.783 0 004.271 4.691 11.965 12.513 0 01-8.277 3.478 11.965 12.513 0 01-11.965-12.512 11.965 12.513 0 011.414-5.903 13.18 13.783 0 00-2.59 8.206 13.18 13.783 0 00.686 4.39 11.965 12.513 0 01-10.898-.572 11.965 12.513 0 01-4.38-17.093 11.965 12.513 0 014.047-4.372 13.18 13.783 0 00-6.167 5.752 13.18 13.783 0 00-1.685 5.372 11.965 12.513 0 01-7.966-11.794 11.965 12.513 0 0111.965-12.513 11.965 12.513 0 016.006 1.69 13.18 13.783 0 00-8.209-3 13.18 13.783 0 00-1.674.113 11.965 12.513 0 015.982-10.83 11.965 12.513 0 0116.345 4.58 11.965 12.513 0 011.603 6.285 13.18 13.783 0 00-1.62-8.935 13.18 13.783 0 00-2.552-3.31 11.965 12.513 0 019.577-5.012zm10.946 2.474a13.18 13.783 0 01.042.065 13.18 13.783 0 00-.042-.065zm.62 1.058a13.18 13.783 0 01.034.062 13.18 13.783 0 00-.033-.062zm-22.903.071a13.18 13.783 0 01.077.052 13.18 13.783 0 00-.077-.052zm.153.104a13.18 13.783 0 01.076.053 13.18 13.783 0 01.062.044 13.18 13.783 0 00-.062-.044 13.18 13.783 0 00-.076-.053zm.227.16a13.18 13.783 0 01.054.039 13.18 13.783 0 00-.054-.039zm22.78.172a13.18 13.783 0 01.03.064 13.18 13.783 0 00-.03-.064zm-22.335.163a13.18 13.783 0 01.073.058 13.18 13.783 0 00-.073-.058zM37.593 71.846a13.18 13.783 0 00-.007.064 13.18 13.783 0 01.007-.064zm-.026.285a13.18 13.783 0 00-.005.052 13.18 13.783 0 01.005-.052zm59.978.61a13.18 13.783 0 01-.249.097 13.18 13.783 0 00.249-.096zm-.335.13a13.18 13.783 0 01-.06.021 13.18 13.783 0 00.06-.022zM57.35 84.392a13.18 13.783 0 00.026.056 13.18 13.783 0 01-.026-.056z"/>
    <path fill="#f3d5d5" d="M94.256 74.244a14.004 14.244 0 01-18.943 4.893 14.004 14.244 0 01-.484-.298 11.175 11.687 0 003.008 2.652 11.175 11.687 0 0015.265-4.278 11.175 11.687 0 001.154-2.97zM101.49 59.333a14.004 14.244 0 01-1.502 3.846 14.004 14.244 0 01-15.308 6.75 11.175 11.687 0 00.057.035 11.175 11.687 0 0015.266-4.278 11.175 11.687 0 001.486-6.353z"/>
  </g>
</svg>
