<svg xmlns="http://www.w3.org/2000/svg" width="331.847" height="544.546" viewBox="0 0 89.947 147.599">
  <g transform="translate(139.73 -173.498)">
    <ellipse cx="-94.692" cy="303.068" fill="#c6cab7" fill-rule="evenodd" paint-order="markers stroke fill" rx="34.466" ry="12.608"/>
    <path fill="#02141f" fill-rule="evenodd" d="M-114.445 208.345v7.87h4.833l-8.873 87.778 47.586-.361-9.016-87.417h3.98v-7.87z" paint-order="stroke fill markers"/>
    <path fill="#02141f" d="M-134.308 275.934l19.04 28.059 4.272-6.582zM-130.668 228.65l19.04 28.059 4.273-6.582zM-131.32 187.412l19.04 28.058 4.272-6.581zM-55.203 275.56l-19.04 28.06-4.273-6.582zM-58.756 228.65l-19.04 28.059-4.273-6.582zM-59.178 187.412l-19.04 28.058-4.273-6.581z"/>
    <path fill="#083350" fill-rule="evenodd" d="M-87.529 294.15a3.724 3.724 0 00-3.718 3.724 3.724 3.724 0 00.101.859v4.997h7.298v-4.997h-.05a3.724 3.724 0 00.1-.859 3.724 3.724 0 00-3.724-3.724 3.724 3.724 0 00-.007 0z" paint-order="stroke fill markers"/>
    <g>
      <path fill="#ff4d2f" d="M-95.776 178.919c-13.451-.05-24.277 13.086-24.12 13.117-.16.032 11.015 13.588 24.762 13.105 10.114-.355 16.809-3.104 25.648-13.009-8.84-9.905-15.534-12.845-25.648-13.2a19.457 19.457 0 00-.642-.013z"/>
      <path fill="#ff9946" d="M-95.541 181.759c-10.54-.04-19.021 10.253-18.898 10.277-.125.026 8.63 10.646 19.401 10.268 7.924-.278 13.17-2.432 20.095-10.193-6.926-7.76-12.171-10.064-20.095-10.342a16.968 16.968 0 00-.503-.01z"/>
      <ellipse cx="-94.692" cy="192.036" fill="#031420" fill-rule="evenodd" paint-order="stroke fill markers" rx="2.533" ry="9.983"/>
    </g>
  </g>
</svg>
