<svg xmlns="http://www.w3.org/2000/svg" width="181.02" height="238.515" viewBox="0 0 49.065 64.65">
  <g transform="translate(-41.584 -38.107)">
    <ellipse cx="66.117" cy="92.634" fill="#c6cab7" fill-rule="evenodd" paint-order="markers stroke fill" rx="19.112" ry="4.701"/>
    <path fill="#f4d2b1" fill-rule="evenodd" d="M79.008 74.591v.045a1.503 1.503 0 01.213-.015 1.503 1.503 0 011.503 1.503 1.503 1.503 0 01-1.503 1.503 1.503 1.503 0 01-.213-.016v.016H74.22V74.59zM53.827 74.359v.044a1.503 1.503 0 00-.212-.015 1.503 1.503 0 00-1.504 1.503 1.503 1.503 0 001.504 1.503 1.503 1.503 0 00.212-.015v.015h4.788V74.36z" paint-order="markers stroke fill"/>
    <path fill="#939393" d="M58.673 69.516s-3.716 11.578-3.04 18.402c.556 5.63 7.76 6.016 10.267 5.98v.018s10.457.878 11.131-5.945c.675-6.823-3.04-18.402-3.04-18.402l-7.415.13v-.046z"/>
    <path fill="#d9d9e2" d="M57.779 65.567s-.179 17.145.877 18.464c1.055 1.32 2.475 1.245 2.475 1.245s13.7-.779 13.89-19.433z"/>
    <path fill="#939393" fill-rule="evenodd" d="M73.977 43.528c-13.538 4-15.445 13.071-15.544 16.976a12.105 3.727 0 00-4.144 2.808 12.105 3.727 0 0012.105 3.727 12.105 3.727 0 0012.104-3.727 12.105 3.727 0 00-4.3-2.85z" paint-order="stroke fill markers"/>
    <path fill="#1d1d33" fill-rule="evenodd" d="M55.635 87.036c.008.188.02.373.034.555h21.454c.013-.182.024-.367.032-.555zM60.509 91.226a1.833 1.833 0 00-1.823 1.833 1.833 1.833 0 00.142.707h3.382a1.833 1.833 0 00.142-.707 1.833 1.833 0 00-1.833-1.833 1.833 1.833 0 00-.01 0zM72.76 91.226a1.833 1.833 0 00-1.823 1.833 1.833 1.833 0 00.142.707h3.382a1.833 1.833 0 00.142-.707 1.833 1.833 0 00-1.833-1.833 1.833 1.833 0 00-.01 0z" paint-order="markers stroke fill"/>
    <g fill-rule="evenodd" paint-order="markers stroke fill">
      <path fill="#d9d9e2" d="M78.662 56.182h1.134V90.54h-1.134z"/>
      <path fill="#4a4a4a" d="M78.662 56.182h1.134v2.882h-1.134z"/>
    </g>
    <circle cx="63.184" cy="68.8" r=".804" fill="#1d1d33" fill-rule="evenodd" paint-order="stroke markers fill"/>
    <circle cx="68.718" cy="68.8" r=".804" fill="#1d1d33" fill-rule="evenodd" paint-order="stroke markers fill"/>
    <path fill="#1d1d33" fill-rule="evenodd" d="M64.808 68.956v.002a.322.322 0 00-.296.32.322.322 0 00.296.32v.006h2.26a.322.322 0 00.322-.322.322.322 0 00-.322-.322v-.004z" paint-order="fill markers stroke"/>
    <path fill="none" stroke="#1d1d33" stroke-linecap="round" stroke-width=".661" d="M64.799 69.534s1.135 1.365 2.287.01" paint-order="stroke fill markers"/>
  </g>
</svg>
