<svg xmlns="http://www.w3.org/2000/svg" xmlns:xlink="http://www.w3.org/1999/xlink" width="500" height="500" viewBox="0 0 132.292 132.292">
  <defs>
    <linearGradient id="ring-b">
      <stop offset="0" stop-color="#b06b00"/>
      <stop offset="1" stop-color="#724600"/>
    </linearGradient>
    <linearGradient id="ring-a">
      <stop offset="0" stop-color="#c47b01"/>
      <stop offset="1" stop-color="#feae28"/>
    </linearGradient>
    <linearGradient id="ring-c" x1="219.324" x2="569.324" y1="177.923" y2="177.923" gradientTransform="scale(.22369 .22703) rotate(-45 645.2 254.5)" gradientUnits="userSpaceOnUse" xlink:href="#ring-a"/>
    <linearGradient id="ring-d" x1="568.054" x2="219.763" y1="16.132" y2="16.132" gradientTransform="scale(.22369 .22703) rotate(-45 645.2 254.5)" gradientUnits="userSpaceOnUse" xlink:href="#ring-a"/>
    <linearGradient id="ring-e" x1="234.311" x2="554.338" y1="48.055" y2="48.055" gradientTransform="scale(.22369 .22703) rotate(-45 645.2 254.5)" gradientUnits="userSpaceOnUse" xlink:href="#ring-b"/>
    <linearGradient id="ring-f" x1="219.324" x2="569.324" y1="177.923" y2="177.923" gradientTransform="matrix(-.19372 -.11351 -.11184 .19661 135.43 73.454)" gradientUnits="userSpaceOnUse" xlink:href="#ring-a"/>
    <linearGradient id="ring-g" x1="568.054" x2="219.763" y1="16.132" y2="16.132" gradientTransform="matrix(-.19372 -.11351 -.11184 .19661 135.43 73.454)" gradientUnits="userSpaceOnUse" xlink:href="#ring-a"/>
    <linearGradient id="ring-h" x1="234.311" x2="554.338" y1="48.055" y2="48.055" gradientTransform="matrix(-.19372 -.11351 -.11184 .19661 135.43 73.454)" gradientUnits="userSpaceOnUse" xlink:href="#ring-b"/>
  </defs>
  <path fill="#eee" fill-rule="evenodd" d="M0 0h132.292v132.292H0z" paint-order="fill markers stroke"/>
  <path fill="#cacaca" d="M40.362 86.822a36.29 7.408 7.502 00-20.703 1.696 36.29 7.408 7.502 00-.613.284l-6.535 2.728a36.29 7.408 7.502 00-.701.265A36.29 7.408 7.502 0032.6 104.06a36.29 7.408 7.502 0015.543 2.43 8.116 33.126 85.777 004.948 3.34 8.116 33.126 85.777 00.96.288 8.116 33.126 85.777 01-.025-.007l8.94 2.89a8.116 33.126 85.777 00.861.298 8.116 33.126 85.777 0011.743 1.946 8.116 33.126 85.777 00.017 0 8.116 33.126 85.777 00.183.013 8.116 33.126 85.777 00.16.01 8.116 33.126 85.777 00.082.006 8.116 33.126 85.777 00.113.007 8.116 33.126 85.777 00.063.004 8.116 33.126 85.777 00.186.011 8.116 33.126 85.777 00.187.011 8.116 33.126 85.777 00.032.002 8.116 33.126 85.777 00.188.011 8.116 33.126 85.777 00.16.01 8.116 33.126 85.777 00.074.003 8.116 33.126 85.777 00.38.02 8.116 33.126 85.777 00.19.01 8.116 33.126 85.777 00.034.001 8.116 33.126 85.777 00.19.01 8.116 33.126 85.777 00.417.017 8.116 33.126 85.777 00.209.01 8.116 33.126 85.777 00.192.007 8.116 33.126 85.777 00.018.001 8.116 33.126 85.777 00.018 0 8.116 33.126 85.777 00.189.008 8.116 33.126 85.777 00.003 0 8.116 33.126 85.777 00.002 0 8.116 33.126 85.777 00.42.014 8.116 33.126 85.777 00.213.007 8.116 33.126 85.777 00.189.005 8.116 33.126 85.777 00.024 0 8.116 33.126 85.777 00.016.001 8.116 33.126 85.777 00.197.005 8.116 33.126 85.777 00.165.004 8.116 33.126 85.777 00.05 0 8.116 33.126 85.777 00.03.002 8.116 33.126 85.777 00.184.004 8.116 33.126 85.777 00.083.002 8.116 33.126 85.777 00.047 0 8.116 33.126 85.777 00.142.003 8.116 33.126 85.777 00.027.001 8.116 33.126 85.777 00.131.003 8.116 33.126 85.777 00.02 0 8.116 33.126 85.777 00.185.003 8.116 33.126 85.777 00.012 0 8.116 33.126 85.777 00.004 0 8.116 33.126 85.777 00.195.004 8.116 33.126 85.777 00.018 0 8.116 33.126 85.777 00.084 0 8.116 33.126 85.777 00.132.003 8.116 33.126 85.777 00.018 0 8.116 33.126 85.777 00.157.002 8.116 33.126 85.777 00.044 0 8.116 33.126 85.777 00.084.001 8.116 33.126 85.777 00.134.001 8.116 33.126 85.777 00.085 0 8.116 33.126 85.777 00.133.002 8.116 33.126 85.777 00.008 0 8.116 33.126 85.777 00.155 0 8.116 33.126 85.777 00.057 0 8.116 33.126 85.777 00.035 0 8.116 33.126 85.777 00.184.002 8.116 33.126 85.777 00.085 0 8.116 33.126 85.777 00.048 0 8.116 33.126 85.777 00.14 0 8.116 33.126 85.777 00.033 0 8.116 33.126 85.777 00.134 0 8.116 33.126 85.777 00.086 0 8.116 33.126 85.777 00.136 0 8.116 33.126 85.777 00.014 0 8.116 33.126 85.777 00.158-.001 8.116 33.126 85.777 00.049 0 8.116 33.126 85.777 00.031 0 8.116 33.126 85.777 00.19-.001 8.116 33.126 85.777 00.086 0 8.116 33.126 85.777 00.044-.001 8.116 33.126 85.777 00.179-.002 8.116 33.126 85.777 00.192-.002 8.116 33.126 85.777 00.03 0 8.116 33.126 85.777 00.052-.001 8.116 33.126 85.777 00.161-.002 8.116 33.126 85.777 00.01 0 8.116 33.126 85.777 00.137-.002 8.116 33.126 85.777 00.146-.002 8.116 33.126 85.777 00.165-.003 8.116 33.126 85.777 00.137-.003 8.116 33.126 85.777 00.028 0 8.116 33.126 85.777 00.16-.004 8.116 33.126 85.777 00.036 0 8.116 33.126 85.777 00.087-.002 8.116 33.126 85.777 00.138-.003 8.116 33.126 85.777 00.087-.002 8.116 33.126 85.777 00.062-.002 8.116 33.126 85.777 00.163-.003 8.116 33.126 85.777 00.193-.004 8.116 33.126 85.777 00.032-.001 8.116 33.126 85.777 00.048-.001 8.116 33.126 85.777 00.178-.005 8.116 33.126 85.777 00.138-.003 8.116 33.126 85.777 00.088-.003 8.116 33.126 85.777 00.138-.004 8.116 33.126 85.777 00.088-.003 8.116 33.126 85.777 00.026 0 8.116 33.126 85.777 00.2-.007 8.116 33.126 85.777 00.226-.008 8.116 33.126 85.777 00.227-.008 8.116 33.126 85.777 00.227-.009 8.116 33.126 85.777 00.218-.009 8.116 33.126 85.777 00.01 0 8.116 33.126 85.777 00.139-.005 8.116 33.126 85.777 00.088-.003 8.116 33.126 85.777 00.039-.002 8.116 33.126 85.777 00.184-.008 8.116 33.126 85.777 00.005 0 8.116 33.126 85.777 00.139-.006 8.116 33.126 85.777 00.088-.003 8.116 33.126 85.777 00.02-.001 8.116 33.126 85.777 002.882-.159 8.116 33.126 85.777 00.031-.002 8.116 33.126 85.777 00.04-.003 8.116 33.126 85.777 00.158-.01 8.116 33.126 85.777 00.229-.016 8.116 33.126 85.777 00.229-.016 8.116 33.126 85.777 00.211-.015 8.116 33.126 85.777 00.018-.001 8.116 33.126 85.777 00.07-.005 8.116 33.126 85.777 00.16-.012 8.116 33.126 85.777 00.228-.017 8.116 33.126 85.777 00.195-.015 8.116 33.126 85.777 00.034-.003 8.116 33.126 85.777 00.07-.005 8.116 33.126 85.777 00.16-.013 8.116 33.126 85.777 00.07-.006 8.116 33.126 85.777 00.158-.013 8.116 33.126 85.777 00.07-.006 8.116 33.126 85.777 00.159-.013 8.116 33.126 85.777 00.01 0 8.116 33.126 85.777 00.447-.038 8.116 33.126 85.777 0015.284-2.285 8.116 33.126 85.777 0010.433-11.94 8.116 33.126 85.777 00-.935-.283l-8.939-2.889a8.116 33.126 85.777 00-.862-.294 8.116 33.126 85.777 00-25.36-2.028 36.29 7.408 7.502 00-17.59-5.206 36.29 7.408 7.502 00-25.76-3.241zm24.54 3.866a33.089 6.616 7.698 01.158.032 36.29 7.408 7.502 00-.157-.032zm-42.691-1.433a33.089 6.616 7.698 00-.068.032 33.089 6.616 7.698 01.068-.032zm-.16.078a33.089 6.616 7.698 00-.055.028 33.089 6.616 7.698 00-.07.037 33.089 6.616 7.698 01.07-.037 33.089 6.616 7.698 01.056-.028zm47.245 2.34a33.089 6.616 7.698 01.207.051 33.089 6.616 7.698 00-.207-.05zm-47.95-1.914a33.089 6.616 7.698 00-.037.028 33.089 6.616 7.698 01.037-.028zm-.369.318a33.089 6.616 7.698 00-.04.043 33.089 6.616 7.698 01.04-.043zm-.087.095a33.089 6.616 7.698 00-.029.034 33.089 6.616 7.698 01.03-.034zm10.13.509a36.29 7.408 7.502 011.347.068 36.29 7.408 7.502 01.157.008 36.29 7.408 7.502 01.14.008 36.29 7.408 7.502 01.097.006 36.29 7.408 7.502 01.14.008 36.29 7.408 7.502 01.014.001 36.29 7.408 7.502 01.223.013 36.29 7.408 7.502 01.29.018 36.29 7.408 7.502 01.187.012 36.29 7.408 7.502 01.098.006 36.29 7.408 7.502 01.049.003 36.29 7.408 7.502 01.19.012 36.29 7.408 7.502 01.141.01 36.29 7.408 7.502 01.1.006 36.29 7.408 7.502 01.036.003 36.29 7.408 7.502 01.204.014 36.29 7.408 7.502 01.382.026 36.29 7.408 7.502 01.196.014 36.29 7.408 7.502 01.045.004 36.29 7.408 7.502 01.024.001 36.29 7.408 7.502 01.218.016 36.29 7.408 7.502 01.343.026 36.29 7.408 7.502 01.142.011 36.29 7.408 7.502 01.1.008 36.29 7.408 7.502 01.047.003 36.29 7.408 7.502 01.44.035 36.29 7.408 7.502 01.144.012 36.29 7.408 7.502 01.1.008 36.29 7.408 7.502 01.144.012 36.29 7.408 7.502 01.014.001 36.29 7.408 7.502 01.23.02 36.29 7.408 7.502 01.101.008 36.29 7.408 7.502 01.144.013 36.29 7.408 7.502 01.101.008 36.29 7.408 7.502 01.027.003 36.29 7.408 7.502 01.465.04 36.29 7.408 7.502 01.144.014 36.29 7.408 7.502 01.101.01 36.29 7.408 7.502 01.036.002 36.29 7.408 7.502 01.457.043 36.29 7.408 7.502 01.145.014 36.29 7.408 7.502 01.596.057 36.29 7.408 7.502 01.004 0 36.29 7.408 7.502 01.244.025 36.29 7.408 7.502 01.145.015 36.29 7.408 7.502 01.102.01 36.29 7.408 7.502 01.052.005 36.29 7.408 7.502 01.444.046 36.29 7.408 7.502 01.147.015 36.29 7.408 7.502 01.102.011 36.29 7.408 7.502 01.017.002 36.29 7.408 7.502 01.231.025 36.29 7.408 7.502 01.146.016 36.29 7.408 7.502 01.014.001 36.29 7.408 7.502 01.16.018 36.29 7.408 7.502 01.177.019 36.29 7.408 7.502 01.147.016 36.29 7.408 7.502 01.102.012 36.29 7.408 7.502 01.147.016 36.29 7.408 7.502 01.018.002 36.29 7.408 7.502 01.23.026 36.29 7.408 7.502 01.353.04 36.29 7.408 7.502 01.146.018 36.29 7.408 7.502 01.103.012 36.29 7.408 7.502 01.147.017 36.29 7.408 7.502 01.102.012 36.29 7.408 7.502 01.147.018 36.29 7.408 7.502 01.352.043 36.29 7.408 7.502 0113.57 2.2 36.29 7.408 7.502 0111.67 2.98 8.116 33.126 85.777 00-5.014.982 8.116 33.126 85.777 00-11.83 3.995 33.089 6.616 7.698 01-9.842-1.687 33.089 6.616 7.698 01-21.27-9.534 36.29 7.408 7.502 014.655-.116 36.29 7.408 7.502 01.17 0 36.29 7.408 7.502 01.19 0 36.29 7.408 7.502 01.124 0 36.29 7.408 7.502 01.307.002 36.29 7.408 7.502 01.03 0 36.29 7.408 7.502 01.186.001 36.29 7.408 7.502 01.045 0 36.29 7.408 7.502 01.39.005 36.29 7.408 7.502 01.033 0 36.29 7.408 7.502 01.627.01 36.29 7.408 7.502 01.037 0 36.29 7.408 7.502 01.63.013 36.29 7.408 7.502 01.03 0 36.29 7.408 7.502 01.419.01 36.29 7.408 7.502 01.008.001 36.29 7.408 7.502 01.148.004 36.29 7.408 7.502 01.103.003 36.29 7.408 7.502 012.306.086zm-10.233-.38a33.089 6.616 7.698 00-.027.036 33.089 6.616 7.698 00-.03.045 33.089 6.616 7.698 00-.055.09 33.089 6.616 7.698 00-.025.044 33.089 6.616 7.698 01.025-.045 33.089 6.616 7.698 01.055-.09 33.089 6.616 7.698 01.03-.044 33.089 6.616 7.698 01.027-.036zm-.165.27a33.089 6.616 7.698 00-.016.035 33.089 6.616 7.698 01.016-.035zm-.018.04a33.089 6.616 7.698 00-.019.042 33.089 6.616 7.698 01.019-.043zm63.616 4.336a8.116 33.126 85.777 00-.166.01 8.116 33.126 85.777 01.166-.01zm9.2 1.035a7.278 30.082 85.434 00-.136-.004 7.278 30.082 85.434 01.137.004zm-.571-.018a7.278 30.082 85.434 00-.166-.005 7.278 30.082 85.434 00-.02 0 7.278 30.082 85.434 01.186.005zm4.261.224a7.278 30.082 85.434 01.184.015 7.278 30.082 85.434 00-.184-.015zm-16.312-.742a8.116 33.126 85.777 00-.459.034 8.116 33.126 85.777 01.459-.034zm9.386.477a7.278 30.082 85.434 00-.187 0 7.278 30.082 85.434 01.187 0zm8.727.43a7.278 30.082 85.434 01.093.01 7.278 30.082 85.434 00-.093-.01zm-11.327-.405a7.278 30.082 85.434 00-.119.002 7.278 30.082 85.434 01.119-.002zm-.616.015a7.278 30.082 85.434 00-.144.004 7.278 30.082 85.434 01.144-.004zm16.744 1.108a7.278 30.082 85.434 01.09.019 7.278 30.082 85.434 00-.09-.019zm2.615.653a7.278 30.082 85.434 01.095.03 7.278 30.082 85.434 00-.095-.03zM19.83 93.958a36.29 7.408 7.502 00.071.046 36.29 7.408 7.502 01-.07-.046zm88.8 4.647a7.278 30.082 85.434 01.06.03 7.278 30.082 85.434 00-.06-.03zm.245.125a7.278 30.082 85.434 01.065.034 7.278 30.082 85.434 01.08.044 7.278 30.082 85.434 00-.08-.044 7.278 30.082 85.434 00-.065-.034zm.336.185a7.278 30.082 85.434 01.041.024 7.278 30.082 85.434 00-.041-.024zm.715.479a7.278 30.082 85.434 01.06.046 7.278 30.082 85.434 01-13.266 9.176 7.278 30.082 85.434 01-35.956 1.843 8.116 33.126 85.777 011.427-3.036 36.29 7.408 7.502 00.114.002 36.29 7.408 7.502 00.355.005 36.29 7.408 7.502 00.084 0 36.29 7.408 7.502 00.134.003 36.29 7.408 7.502 00.017 0 36.29 7.408 7.502 00.201.002 36.29 7.408 7.502 00.012 0 36.29 7.408 7.502 00.205.002 36.29 7.408 7.502 00.3.002 36.29 7.408 7.502 00.132 0 36.29 7.408 7.502 00.083 0 36.29 7.408 7.502 00.024 0 36.29 7.408 7.502 00.403.001 36.29 7.408 7.502 00.01 0 36.29 7.408 7.502 00.202 0 36.29 7.408 7.502 00.13 0 36.29 7.408 7.502 00.081-.001 36.29 7.408 7.502 00.03 0 36.29 7.408 7.502 00.39-.003 36.29 7.408 7.502 00.128-.001 36.29 7.408 7.502 00.906-.014 36.29 7.408 7.502 00.124-.003 36.29 7.408 7.502 00.282-.006 36.29 7.408 7.502 00.123-.003 36.29 7.408 7.502 00.078-.002 36.29 7.408 7.502 00.028 0 36.29 7.408 7.502 00.372-.011 36.29 7.408 7.502 00.122-.003 36.29 7.408 7.502 00.077-.003 36.29 7.408 7.502 00.03-.001 36.29 7.408 7.502 0011.694-1.784 36.29 7.408 7.502 00.613-.283l6.536-2.729a36.29 7.408 7.502 01-.12.041 36.29 7.408 7.502 00.82-.306 36.29 7.408 7.502 002.366-2.426 8.116 33.126 85.777 01.166-.017 8.116 33.126 85.777 01.072-.007 8.116 33.126 85.777 01.09-.01 8.116 33.126 85.777 01.188-.018 8.116 33.126 85.777 01.105-.01 8.116 33.126 85.777 01.074-.007 8.116 33.126 85.777 01.096-.01 8.116 33.126 85.777 01.132-.012 8.116 33.126 85.777 01.084-.008 8.116 33.126 85.777 01.139-.013 8.116 33.126 85.777 01.158-.015 8.116 33.126 85.777 01.123-.011 8.116 33.126 85.777 01.05-.004 8.116 33.126 85.777 01.178-.017 8.116 33.126 85.777 01.246-.022 8.116 33.126 85.777 01.132-.011 8.116 33.126 85.777 01.142-.013 8.116 33.126 85.777 01.146-.012 8.116 33.126 85.777 01.032-.003 8.116 33.126 85.777 01.188-.016 8.116 33.126 85.777 01.069-.006 8.116 33.126 85.777 01.333-.027 8.116 33.126 85.777 01.19-.015 8.116 33.126 85.777 01.122-.01 8.116 33.126 85.777 01.995-.074 8.116 33.126 85.777 01.055-.003 8.116 33.126 85.777 01.35-.025 8.116 33.126 85.777 01.16-.01 8.116 33.126 85.777 01.336-.023 8.116 33.126 85.777 01.166-.01 8.116 33.126 85.777 01.253-.016 8.116 33.126 85.777 01.163-.01 8.116 33.126 85.777 01.376-.022 8.116 33.126 85.777 01.328-.018 8.116 33.126 85.777 01.048-.003 8.116 33.126 85.777 01.131-.006 8.116 33.126 85.777 01.134-.007 8.116 33.126 85.777 01.328-.017 8.116 33.126 85.777 01.103-.005 8.116 33.126 85.777 01.194-.01 8.116 33.126 85.777 01.28-.013 8.116 33.126 85.777 01.298-.013 8.116 33.126 85.777 01.821-.033 8.116 33.126 85.777 013.26-.08 8.116 33.126 85.777 01.41-.003 8.116 33.126 85.777 01.013 0 8.116 33.126 85.777 01.21-.002 8.116 33.126 85.777 01.223-.001 8.116 33.126 85.777 01.098 0 8.116 33.126 85.777 01.153-.001 8.116 33.126 85.777 01.19 0 8.116 33.126 85.777 01.034 0 8.116 33.126 85.777 01.077 0 8.116 33.126 85.777 01.137 0 8.116 33.126 85.777 01.191 0 8.116 33.126 85.777 01.035 0 8.116 33.126 85.777 01.09 0 8.116 33.126 85.777 01.118.001 8.116 33.126 85.777 01.065 0 8.116 33.126 85.777 01.166.001 8.116 33.126 85.777 01.184.002 8.116 33.126 85.777 01.012 0 8.116 33.126 85.777 01.206.002 8.116 33.126 85.777 01.467.006 8.116 33.126 85.777 01.4.006 8.116 33.126 85.777 01.021 0 8.116 33.126 85.777 01.377.008 8.116 33.126 85.777 014.797.214 7.278 30.082 85.434 00-.059-.046zm-22.674.73a8.116 33.126 85.777 00-.172.021 8.116 33.126 85.777 01.172-.02zm-1.754.221a8.116 33.126 85.777 00-.222.03 8.116 33.126 85.777 00-.222.03 8.116 33.126 85.777 00-.202.028 8.116 33.126 85.777 01.202-.028 8.116 33.126 85.777 01.222-.03 8.116 33.126 85.777 01.222-.03zm-23.254-1.047a7.278 30.082 85.434 00-.17.047 7.278 30.082 85.434 01.17-.047zm22.572 1.14a8.116 33.126 85.777 00-.202.028 8.116 33.126 85.777 00-.17.024 8.116 33.126 85.777 01.17-.024 8.116 33.126 85.777 01.202-.028zm-1.515.22a8.116 33.126 85.777 00-.216.032 8.116 33.126 85.777 01.216-.033zm-52.847-2.34a36.29 7.408 7.502 00.184.054 36.29 7.408 7.502 01-.184-.055zm52.197 2.44a8.116 33.126 85.777 00-.216.034 8.116 33.126 85.777 01.216-.034zm-.448.07a8.116 33.126 85.777 00-.197.033 8.116 33.126 85.777 01.197-.032zm-.418.07a8.116 33.126 85.777 00-.175.028 8.116 33.126 85.777 01.175-.029zm32.013 1.534a8.116 33.126 85.777 01-.016.028 8.116 33.126 85.777 00.016-.028zm-32.432-1.465a8.116 33.126 85.777 00-.212.036 8.116 33.126 85.777 01.212-.036zm-.424.072a8.116 33.126 85.777 00-.207.036 8.116 33.126 85.777 01.207-.036zm-1.255.225a8.116 33.126 85.777 00-.173.032 8.116 33.126 85.777 01.173-.032zm-1.177.225a36.29 7.408 7.502 011.203 1.314 33.089 6.616 7.698 01-8.638.534 8.116 33.126 85.777 011.144-.361 33.089 6.616 7.698 01-.015 0 8.116 33.126 85.777 013.977-.998 8.116 33.126 85.777 012.329-.49zm3.95.768a33.089 6.616 7.698 01-.096.025 33.089 6.616 7.698 00.096-.025zm-44.663-2.045a36.29 7.408 7.502 00.226.05 36.29 7.408 7.502 01-.226-.05zm1.825.398a36.29 7.408 7.502 00.224.047 36.29 7.408 7.502 01-.224-.047zm46.045 2.157a36.29 7.408 7.502 01-.221.065 36.29 7.408 7.502 01-.46.126 36.29 7.408 7.502 01-.24.06 36.29 7.408 7.502 00.24-.06 36.29 7.408 7.502 00.46-.126 36.29 7.408 7.502 00.22-.065zm-45.218-1.985a36.29 7.408 7.502 00.702.142 36.29 7.408 7.502 01-.702-.142zm40.203 1.869a33.089 6.616 7.698 01-.116.02 33.089 6.616 7.698 00.116-.02zm-37.842-1.404a36.29 7.408 7.502 00.718.135 36.29 7.408 7.502 01-.718-.135zm41.311 1.917a36.29 7.408 7.502 01-.26.055 36.29 7.408 7.502 00.26-.055zm-.26.055a36.29 7.408 7.502 01-.267.054 36.29 7.408 7.502 00.266-.054zm-.402.08a36.29 7.408 7.502 01-.555.103 36.29 7.408 7.502 00.555-.102zm-38.482-1.657a36.29 7.408 7.502 00.41.072 36.29 7.408 7.502 01-.41-.072zm37.784 1.784a36.29 7.408 7.502 01-.29.048 36.29 7.408 7.502 00.29-.048zm-35.83-1.453a36.29 7.408 7.502 00.492.08 36.29 7.408 7.502 01-.492-.08zm34.64 1.635a36.29 7.408 7.502 01-.312.042 36.29 7.408 7.502 00.311-.042zm-33.161-1.4a36.29 7.408 7.502 00.495.076 36.29 7.408 7.502 01-.495-.076zm32.372 1.502a36.29 7.408 7.502 01-.325.037 36.29 7.408 7.502 00.325-.037zm-31.63-1.389a36.29 7.408 7.502 00.497.074 36.29 7.408 7.502 01-.496-.074zm31.14 1.445a36.29 7.408 7.502 01-.5.052 36.29 7.408 7.502 00.5-.052zm-30.395-1.335a36.29 7.408 7.502 00.497.072 36.29 7.408 7.502 01-.497-.072zm29.036 1.466a36.29 7.408 7.502 01-.353.029 36.29 7.408 7.502 00.353-.029zm-.531.043a36.29 7.408 7.502 01-.542.039 36.29 7.408 7.502 00.542-.04zm-1.28.085a36.29 7.408 7.502 01-.377.02 36.29 7.408 7.502 00.376-.02zm-2.377.1a36.29 7.408 7.502 01-.05.002 36.29 7.408 7.502 01-.047 0 36.29 7.408 7.502 00.097-.002zm-.634.015a36.29 7.408 7.502 01-.023.001 36.29 7.408 7.502 01-.022 0 36.29 7.408 7.502 01-.076.003 36.29 7.408 7.502 00.121-.003zm-.367.007a36.29 7.408 7.502 01-.066.001 36.29 7.408 7.502 01-.02 0 36.29 7.408 7.502 01-.066.002 36.29 7.408 7.502 00.152-.003zm-1.647.015a36.29 7.408 7.502 01-.094 0 36.29 7.408 7.502 01-.026 0 36.29 7.408 7.502 01-.07 0 36.29 7.408 7.502 00.19 0zm-.41 0a36.29 7.408 7.502 01-.073 0 36.29 7.408 7.502 01-.143 0 36.29 7.408 7.502 01-.111-.001 36.29 7.408 7.502 01-.035 0 36.29 7.408 7.502 00.146 0 36.29 7.408 7.502 00.215 0zm-.518-.003a36.29 7.408 7.502 01-.025 0 36.29 7.408 7.502 01-.019 0 36.29 7.408 7.502 01-.086-.001 36.29 7.408 7.502 00.13 0zm35.362 2.826a8.116 33.126 85.777 01-.147.054 8.116 33.126 85.777 00.147-.054zm-2.187.741a8.116 33.126 85.777 01-.138.043 8.116 33.126 85.777 00.138-.043zm-.517.16a8.116 33.126 85.777 01-.117.035 8.116 33.126 85.777 00.117-.035zm-.623.184a8.116 33.126 85.777 01-.17.05 8.116 33.126 85.777 00.17-.05zm-.562.162a8.116 33.126 85.777 01-.127.035 8.116 33.126 85.777 00.127-.035zm-1.383.373a8.116 33.126 85.777 01-.17.044 8.116 33.126 85.777 00.17-.044zm-.568.145a8.116 33.126 85.777 01-.154.038 8.116 33.126 85.777 00.154-.038zm-49.185-1.754a7.278 30.082 85.434 00.022.029 7.278 30.082 85.434 01-.022-.03zm46.24 2.436a8.116 33.126 85.777 01-.17.036 8.116 33.126 85.777 00.17-.036zm-.407.086a8.116 33.126 85.777 01-.19.04 8.116 33.126 85.777 00.19-.04zm-.827.168a8.116 33.126 85.777 01-.166.033 8.116 33.126 85.777 00.166-.033zm-.382.076a8.116 33.126 85.777 01-.196.038 8.116 33.126 85.777 00.196-.038zm-.83.158a8.116 33.126 85.777 01-.19.036 8.116 33.126 85.777 00.19-.036zm-42.284-1.675a7.278 30.082 85.434 00.076.043 7.278 30.082 85.434 01-.076-.043zm39.755 2.116a8.116 33.126 85.777 01-.177.029 8.116 33.126 85.777 00.177-.029zm-.41.066a8.116 33.126 85.777 01-.174.028 8.116 33.126 85.777 00.173-.028zm-1.084.167a8.116 33.126 85.777 01-.182.027 8.116 33.126 85.777 00.182-.027zm-36.433-1.524a7.278 30.082 85.434 00.107.039 7.278 30.082 85.434 00.108.038 7.278 30.082 85.434 01-.108-.038 7.278 30.082 85.434 01-.107-.039zm35.313 1.686a8.116 33.126 85.777 01-.196.027 8.116 33.126 85.777 01-.18.025 8.116 33.126 85.777 00.18-.025 8.116 33.126 85.777 00.196-.027zm-.638.087a8.116 33.126 85.777 01-.2.027 8.116 33.126 85.777 00.2-.027zm-33.544-1.4a7.278 30.082 85.434 00.1.029 7.278 30.082 85.434 00.122.035 7.278 30.082 85.434 01-.122-.035 7.278 30.082 85.434 01-.1-.03zm31.74 1.63a8.116 33.126 85.777 01-.204.024 8.116 33.126 85.777 00.203-.024zm-30.86-1.387a7.278 30.082 85.434 00.096.025 7.278 30.082 85.434 01-.097-.025zm.8.195a7.278 30.082 85.434 00.097.022 7.278 30.082 85.434 01-.096-.022zm28.276 1.393a8.116 33.126 85.777 01-.21.022 8.116 33.126 85.777 00.21-.022zm-27.762-1.28a7.278 30.082 85.434 00.14.03 7.278 30.082 85.434 01-.14-.03zm27.521 1.306a8.116 33.126 85.777 01-.213.022 8.116 33.126 85.777 01-.191.02 8.116 33.126 85.777 00.19-.02 8.116 33.126 85.777 00.214-.022zm-25.743-.97a7.278 30.082 85.434 00.152.025 7.278 30.082 85.434 01-.152-.025zm-5.813-.19a8.116 33.126 85.777 00.1.028 8.116 33.126 85.777 01-.1-.028zm.413.112a8.116 33.126 85.777 00.101.026 8.116 33.126 85.777 00.138.036 8.116 33.126 85.777 01-.138-.036 8.116 33.126 85.777 01-.101-.026zm.697.175a8.116 33.126 85.777 00.107.025 8.116 33.126 85.777 00.124.03 8.116 33.126 85.777 01-.124-.03 8.116 33.126 85.777 01-.107-.025zm.278.065a8.116 33.126 85.777 00.12.027 8.116 33.126 85.777 00.146.034 8.116 33.126 85.777 00.137.03 8.116 33.126 85.777 01-.137-.03 8.116 33.126 85.777 01-.147-.034 8.116 33.126 85.777 01-.119-.027zm25.157 1.234a8.116 33.126 85.777 01-.07.005 8.116 33.126 85.777 01-.116.008 8.116 33.126 85.777 00.186-.012zM55.95 110.59a8.116 33.126 85.777 00.129.028 8.116 33.126 85.777 01-.13-.028zm.143.03a8.116 33.126 85.777 00.115.025 8.116 33.126 85.777 01-.115-.024zm.175.038a8.116 33.126 85.777 00.118.025 8.116 33.126 85.777 00.148.03 8.116 33.126 85.777 01-.148-.03 8.116 33.126 85.777 01-.118-.025zm23.721 1.113a8.116 33.126 85.777 01-.194.012 8.116 33.126 85.777 00.194-.012zm-23.443-1.055a8.116 33.126 85.777 00.147.03 8.116 33.126 85.777 00.143.028 8.116 33.126 85.777 01-.143-.029 8.116 33.126 85.777 01-.147-.03zm22.988 1.082a8.116 33.126 85.777 01-.226.013 8.116 33.126 85.777 00.226-.013zm-.458.026a8.116 33.126 85.777 01-.228.012 8.116 33.126 85.777 00.228-.012zm-.47.025a8.116 33.126 85.777 01-.171.009 8.116 33.126 85.777 00.17-.01zm-.453.022a8.116 33.126 85.777 01-.198.009 8.116 33.126 85.777 00.198-.01zm-20.483-.942a8.116 33.126 85.777 00.133.024 8.116 33.126 85.777 01-.133-.024zm20.246.953a8.116 33.126 85.777 01-.19.01 8.116 33.126 85.777 00.19-.01zm-.236.01a8.116 33.126 85.777 01-.072.004 8.116 33.126 85.777 01-.046.002 8.116 33.126 85.777 01-.067.003 8.116 33.126 85.777 00.185-.008zm-19.679-.905a8.116 33.126 85.777 00.126.022 8.116 33.126 85.777 01-.126-.022zm.135.023a8.116 33.126 85.777 00.14.023 8.116 33.126 85.777 01-.14-.023zm19.103.901a8.116 33.126 85.777 01-.087.003 8.116 33.126 85.777 01-.109.004 8.116 33.126 85.777 01-.011 0 8.116 33.126 85.777 01-.008 0 8.116 33.126 85.777 00.215-.008zm-18.923-.871a8.116 33.126 85.777 00.146.024 8.116 33.126 85.777 00.168.027 8.116 33.126 85.777 00.156.025 8.116 33.126 85.777 01-.156-.025 8.116 33.126 85.777 01-.168-.027 8.116 33.126 85.777 01-.146-.024zm17.993.906a8.116 33.126 85.777 01-.065.003 8.116 33.126 85.777 01-.043.002 8.116 33.126 85.777 01-.046.002 8.116 33.126 85.777 00.154-.005zm-17.304-.797a8.116 33.126 85.777 00.134.02 8.116 33.126 85.777 00.143.021 8.116 33.126 85.777 01-.143-.02 8.116 33.126 85.777 01-.134-.021zm.35.052a8.116 33.126 85.777 00.128.019 8.116 33.126 85.777 00.174.024 8.116 33.126 85.777 00.175.025 8.116 33.126 85.777 00.176.023 8.116 33.126 85.777 00.154.02 8.116 33.126 85.777 01-.154-.02 8.116 33.126 85.777 01-.176-.023 8.116 33.126 85.777 01-.175-.025 8.116 33.126 85.777 01-.174-.024 8.116 33.126 85.777 01-.128-.019zm15.6.783a8.116 33.126 85.777 01-.066.002 8.116 33.126 85.777 01-.108.003 8.116 33.126 85.777 01-.02 0 8.116 33.126 85.777 01-.035.001 8.116 33.126 85.777 01-.062.002 8.116 33.126 85.777 01-.07.002 8.116 33.126 85.777 00.168-.003 8.116 33.126 85.777 00.192-.004zm-14.579-.643a8.116 33.126 85.777 00.144.018 8.116 33.126 85.777 01-.144-.018zm13.54.662a8.116 33.126 85.777 01-.032.001 8.116 33.126 85.777 01-.02 0 8.116 33.126 85.777 00.052 0zm-13.013-.597a8.116 33.126 85.777 00.182.022 8.116 33.126 85.777 00.158.019 8.116 33.126 85.777 01-.158-.019 8.116 33.126 85.777 01-.182-.022zm12.777.6a8.116 33.126 85.777 01-.02.001 8.116 33.126 85.777 01-.006 0 8.116 33.126 85.777 00.026 0zm-12.044-.515a8.116 33.126 85.777 00.186.02 8.116 33.126 85.777 00.186.02 8.116 33.126 85.777 00.188.02 8.116 33.126 85.777 00.188.018 8.116 33.126 85.777 00.17.017 8.116 33.126 85.777 01-.17-.017 8.116 33.126 85.777 01-.188-.019 8.116 33.126 85.777 01-.188-.02 8.116 33.126 85.777 01-.186-.019 8.116 33.126 85.777 01-.186-.02zm11.116.524a8.116 33.126 85.777 01-.144 0 8.116 33.126 85.777 01-.078 0 8.116 33.126 85.777 01-.085.001 8.116 33.126 85.777 01-.01 0 8.116 33.126 85.777 00.095 0 8.116 33.126 85.777 00.222-.001zm-9.932-.404a8.116 33.126 85.777 00.135.013 8.116 33.126 85.777 00.19.017 8.116 33.126 85.777 01-.19-.017 8.116 33.126 85.777 01-.135-.013zm.522.048a8.116 33.126 85.777 00.184.016 8.116 33.126 85.777 01-.184-.016zm7.567.351a8.116 33.126 85.777 01-.012 0 8.116 33.126 85.777 01-.07 0 8.116 33.126 85.777 01-.034 0 8.116 33.126 85.777 01-.01 0 8.116 33.126 85.777 01-.009-.001 8.116 33.126 85.777 00.054 0 8.116 33.126 85.777 00.08.002zm-6.943-.3a8.116 33.126 85.777 00.153.013 8.116 33.126 85.777 00.182.014 8.116 33.126 85.777 01-.182-.014 8.116 33.126 85.777 01-.153-.012zm.372.03a8.116 33.126 85.777 00.176.013 8.116 33.126 85.777 00.198.014 8.116 33.126 85.777 00.123.009 8.116 33.126 85.777 01-.123-.009 8.116 33.126 85.777 01-.198-.014 8.116 33.126 85.777 01-.176-.013zm4.064.217a8.116 33.126 85.777 01-.156-.005 8.116 33.126 85.777 01-.027-.001 8.116 33.126 85.777 01-.018 0 8.116 33.126 85.777 01-.013-.001 8.116 33.126 85.777 01-.103-.004 8.116 33.126 85.777 00.116.004 8.116 33.126 85.777 00.2.007zm-.898-.034a8.116 33.126 85.777 01-.114-.004 8.116 33.126 85.777 01-.01 0 8.116 33.126 85.777 01-.004 0 8.116 33.126 85.777 00.128.005zm-.759-.034a8.116 33.126 85.777 00.15.007 8.116 33.126 85.777 01-.095-.004 8.116 33.126 85.777 01-.055-.003z"/>
  <path fill="url(#ring-c)" d="M51.004 99.727l9.06 9.195a25.349 39.442 43.977 00.873.96 25.349 39.442 43.977 0045.474-10.033 25.349 39.442 43.977 009.886-46.153 25.349 39.442 43.977 00-.946-.887l-9.06-9.195a25.349 39.442 43.977 01-10.76 45.192 25.349 39.442 43.977 01-44.527 10.92z" transform="translate(1.683 .774)"/>
  <path fill="url(#ring-d)" d="M59.943 52.686a25.349 39.442 43.977 00-9.886 46.154 25.349 39.442 43.977 0045.474-10.034 25.349 39.442 43.977 009.886-46.153 25.349 39.442 43.977 00-45.474 10.033zm1.946 1.975a22.577 36.064 44.027 0141.157-9.602 22.577 36.064 44.027 01-9.461 41.772 22.577 36.064 44.027 01-41.158 9.603A22.577 36.064 44.027 0161.89 54.66z" transform="translate(1.683 .774)"/>
  <path fill="url(#ring-e)" fill-rule="evenodd" d="M61.889 54.661a22.577 36.064 44.027 00-.153.156 25.349 39.442 43.977 00-.183.188 22.577 36.064 44.027 00-.022.023 22.577 36.064 44.027 00-9.104 41.406 22.577 36.064 44.027 005.322 3.428 25.349 39.442 43.977 0115.02-34.158 25.349 39.442 43.977 0133.655-15.243 22.577 36.064 44.027 00-3.378-5.402 22.577 36.064 44.027 00-40.787 9.23 22.577 36.064 44.027 00-.178.178 25.349 39.442 43.977 00-.008.008 22.577 36.064 44.027 00-.184.186z" transform="translate(1.683 .774)"/>
  <path fill="#ffe4b6" fill-opacity=".156" fill-rule="evenodd" d="M63.559 104.824l10.88 11.043a25.349 39.442 43.977 0012.883-1.79l-10.88-11.043a25.349 39.442 43.977 01-12.883 1.79zm15.755-2.876l10.88 11.043a25.349 39.442 43.977 003.068-1.416l-10.88-11.043a25.349 39.442 43.977 01-3.068 1.416z"/>
  <path fill-opacity=".161" fill-rule="evenodd" d="M75.368 46.303l10.784 10.946a25.349 39.442 43.977 0110.145-4.57L85.825 42.052a22.577 36.064 44.027 00-10.457 4.252zm13.787-4.873l10.277 10.43a25.349 39.442 43.977 013.874-.597l-9.882-10.03a22.577 36.064 44.027 00-4.27.197z"/>
  <path fill-opacity=".102" d="M82.168 38.975a25.349 39.442 43.977 00-.165.063 25.349 39.442 43.977 01.165-.063zm-.621.24a25.349 39.442 43.977 00-.228.092 25.349 39.442 43.977 01.228-.091zm-.228.092a25.349 39.442 43.977 00-.228.092 25.349 39.442 43.977 01.228-.092zm7.295 15.677a25.349 39.442 43.977 00-.105.058 25.349 39.442 43.977 00-.107.06 25.349 39.442 43.977 01.212-.118zm-.451.255a25.349 39.442 43.977 00-.062.035 25.349 39.442 43.977 00-.085.049 25.349 39.442 43.977 00-.078.045 25.349 39.442 43.977 01.225-.129zm-.674.393a25.349 39.442 43.977 00-.099.058 25.349 39.442 43.977 00-.005.003 25.349 39.442 43.977 00-.12.072 25.349 39.442 43.977 01.224-.133zm-.225.133a25.349 39.442 43.977 00-.224.135 25.349 39.442 43.977 01.224-.135zm-.224.135a25.349 39.442 43.977 00-.223.136 25.349 39.442 43.977 01.223-.136zm-.223.136a25.349 39.442 43.977 00-.223.138 25.349 39.442 43.977 01.223-.138zm-.223.138a25.349 39.442 43.977 00-.223.138 25.349 39.442 43.977 01.223-.138zm-.223.138a25.349 39.442 43.977 00-.22.139 25.349 39.442 43.977 01.22-.139zm-.225.141a25.349 39.442 43.977 00-.22.14 25.349 39.442 43.977 01.22-.14zm-.22.14a25.349 39.442 43.977 00-.222.143 25.349 39.442 43.977 01.222-.142zm-.222.143a25.349 39.442 43.977 00-.221.144 25.349 39.442 43.977 01.221-.144zm-.221.144a25.349 39.442 43.977 00-.124.08 25.349 39.442 43.977 01.124-.08zM51.22 68.78a25.349 39.442 43.977 00-3.341 17.724 39.294 25.444 30.9 0014.074 1.053 25.349 39.442 43.977 018.585-16.69 35.93 22.661 30.856 01-19.318-2.087zm.06 2.985a39.294 25.444 30.9 00.42.136 39.294 25.444 30.9 01-.42-.136zm9.375 2.14a39.294 25.444 30.9 00.463.056 39.294 25.444 30.9 01-.463-.056zm2.422.236a39.294 25.444 30.9 00.465.03 39.294 25.444 30.9 01-.465-.03zm-11.113.968a22.577 36.064 44.027 00-.055.202 22.577 36.064 44.027 01.055-.202z"/>
  <path fill="url(#ring-f)" d="M82.816 66.258L76.409 77.52a39.294 25.444 30.9 01-.599 1.157 39.294 25.444 30.9 01-46.483 2.254A39.294 25.444 30.9 018.01 38.947a39.294 25.444 30.9 01.688-1.105l6.406-11.262a39.294 25.444 30.9 0021.918 40.826 39.294 25.444 30.9 0045.795-1.148z" transform="translate(1.683 .774)"/>
  <path fill="url(#ring-g)" d="M36.308 15.557a39.294 25.444 30.9 00-20.606 9.865 39.294 25.444 30.9 0021.319 41.984 39.294 25.444 30.9 0046.483-2.254 39.294 25.444 30.9 002.254-9.42 25.349 39.442 43.977 00-.165.092 25.349 39.442 43.977 00-.225.128 25.349 39.442 43.977 00-.183.104 25.349 39.442 43.977 00-.084.049 25.349 39.442 43.977 00-.18.104 25.349 39.442 43.977 00-.005.003 25.349 39.442 43.977 00-.223.13 25.349 39.442 43.977 00-.219.13 25.349 39.442 43.977 00-.005.003 25.349 39.442 43.977 00-2.026 1.267 35.93 22.661 30.856 01-1.842 5.71 35.93 22.661 30.856 01-42.204 1.535 35.93 22.661 30.856 01-19.792-37.863 35.93 22.661 30.856 0142.204-1.536 35.93 22.661 30.856 0116.453 14.978 25.349 39.442 43.977 012.73-1.082 39.294 25.444 30.9 00-17.807-16.316 39.294 25.444 30.9 00-25.877-7.61z" transform="translate(1.683 .774)"/>
  <path fill="url(#ring-h)" fill-rule="evenodd" d="M36.722 18.492a35.93 22.661 30.856 00-18.117 8.632 35.93 22.661 30.856 00-1.885 6.105 39.294 25.444 30.9 0136.396 5.883 39.294 25.444 30.9 0111.792 9.061 25.349 39.442 43.977 0112.354-7.607 35.93 22.661 30.856 00-16.013-14.718 35.93 22.661 30.856 00-.027-.017 39.294 25.444 30.9 00-.225-.133 35.93 22.661 30.856 00-.188-.11 35.93 22.661 30.856 00-.225-.132 39.294 25.444 30.9 00-.01-.006 35.93 22.661 30.856 00-.217-.125 35.93 22.661 30.856 00-23.635-6.833zm45.722 39.25a25.349 39.442 43.977 00-7.37 5.743 39.294 25.444 30.9 011.26 4.675 35.93 22.661 30.856 004.267-4.709 35.93 22.661 30.856 001.843-5.709z" transform="translate(1.683 .774)"/>
  <path fill="#ffe4b6" fill-opacity=".156" fill-rule="evenodd" d="M75.1 74.064l-7.693 13.524a39.294 25.444 30.9 01-12.9 1.655L62.2 75.72a39.294 25.444 30.9 0012.9-1.655zm-15.951 1.36L51.455 88.95a39.294 25.444 30.9 01-3.325-.562l7.694-13.525a39.294 25.444 30.9 003.325.562z"/>
  <path fill-opacity=".161" fill-rule="evenodd" d="M48.77 20.639l-7.625 13.405a39.294 25.444 30.9 00-10.965-1.748l7.405-13.018a35.93 22.661 30.856 0111.185 1.36zm-14.56-1.086l-7.267 12.775a39.294 25.444 30.9 00-3.894.44l6.988-12.284a35.93 22.661 30.856 014.173-.93z"/>
</svg>
